<?xml version="1.0" encoding="utf-8"?>
<!-- Generator: Adobe Illustrator 27.2.0, SVG Export Plug-In . SVG Version: 6.00 Build 0)  -->
<svg version="1.1" id="레이어_1" xmlns="http://www.w3.org/2000/svg" xmlns:xlink="http://www.w3.org/1999/xlink" x="0px"
	 y="0px" viewBox="0 0 3300 2200" style="enable-background:new 0 0 3300 2200;" xml:space="preserve">
<style type="text/css">
	.st0{fill:#FFFFFF;}
	.st1{fill:none;stroke:#000000;stroke-width:0.5;}
	.st2{font-family:'Helvetica-Bold';}
	.st3{font-size:13px;}
	.st4{font-family:'Helvetica';}
	.st5{fill:none;stroke:#00AEEF;stroke-width:0.5;}
	.st6{fill:#27AAE1;}
	.st7{fill:none;stroke:#27AAE1;stroke-width:0.5;}
</style>
<g id="Notes">
	<rect id="artboard" class="st0" width="3300" height="2200"/>
	<line class="st1" x1="263" y1="292" x2="3036" y2="292"/>
	<text transform="matrix(1 0 0 1 263 322)" class="st2 st3">Weight/Scale Variations</text>
	<text transform="matrix(1 0 0 1 534.0633 322)" class="st4 st3">Ultralight</text>
	<text transform="matrix(1 0 0 1 843.7775 322)" class="st4 st3">Thin</text>
	<text transform="matrix(1 0 0 1 1139.035 322)" class="st4 st3">Light</text>
	<text transform="matrix(1 0 0 1 1427.0773 322)" class="st4 st3">Regular</text>
	<text transform="matrix(1 0 0 1 1723.4419 322)" class="st4 st3">Medium</text>
	<text transform="matrix(1 0 0 1 2016.1719 322)" class="st4 st3">Semibold</text>
	<text transform="matrix(1 0 0 1 2326.9705 322)" class="st4 st3">Bold</text>
	<text transform="matrix(1 0 0 1 2618.2659 322)" class="st4 st3">Heavy</text>
	<text transform="matrix(1 0 0 1 2917.5054 322)" class="st4 st3">Black</text>
	<line class="st1" x1="263" y1="1903" x2="3036" y2="1903"/>
	<g transform="matrix(1 0 0 1 263 1933)">
		<path d="M9.2,0.8c4.3,0,7.9-3.6,7.9-7.9c0-4.3-3.6-7.9-7.9-7.9c-4.3,0-7.9,3.6-7.9,7.9C1.4-2.7,5,0.8,9.2,0.8z M9.2-0.7
			c-3.5,0-6.4-2.8-6.4-6.4c0-3.6,2.8-6.4,6.4-6.4c3.6,0,6.4,2.8,6.4,6.4C15.6-3.5,12.8-0.7,9.2-0.7z M5.7-7.1c0,0.4,0.3,0.7,0.8,0.7
			h2.1v2.1c0,0.4,0.3,0.7,0.7,0.7c0.4,0,0.7-0.3,0.7-0.7v-2.1h2.1c0.4,0,0.7-0.3,0.7-0.7c0-0.4-0.3-0.7-0.7-0.7H10v-2.1
			c0-0.4-0.3-0.8-0.7-0.8c-0.4,0-0.7,0.3-0.7,0.8v2.1H6.4C6-7.8,5.7-7.5,5.7-7.1z"/>
	</g>
	<g transform="matrix(1 0 0 1 281.867 1933)">
		<path d="M11.7,2.9c5.4,0,10-4.5,10-10c0-5.4-4.5-10-10-10c-5.4,0-10,4.5-10,10C1.7-1.6,6.3,2.9,11.7,2.9z M11.7,1.2
			c-4.6,0-8.3-3.7-8.3-8.3c0-4.6,3.7-8.3,8.3-8.3c4.6,0,8.3,3.7,8.3,8.3C20-2.4,16.3,1.2,11.7,1.2z M7.2-7.1c0,0.5,0.3,0.8,0.8,0.8
			h2.9v2.9c0,0.5,0.3,0.8,0.8,0.8c0.5,0,0.8-0.3,0.8-0.8v-2.9h2.9c0.5,0,0.8-0.3,0.8-0.8c0-0.5-0.3-0.8-0.8-0.8h-2.9v-2.9
			c0-0.5-0.3-0.8-0.8-0.8c-0.5,0-0.8,0.3-0.8,0.8v2.9H8C7.5-7.9,7.2-7.5,7.2-7.1z"/>
	</g>
	<g transform="matrix(1 0 0 1 305.646 1933)">
		<path d="M15,5.7c7,0,12.7-5.8,12.7-12.7c0-7-5.8-12.7-12.7-12.7C8-19.8,2.3-14,2.3-7.1C2.3-0.1,8,5.7,15,5.7z M15,3.8
			C8.9,3.8,4.1-1,4.1-7.1c0-6,4.8-10.9,10.9-10.9c6,0,10.9,4.9,10.9,10.9C25.9-1,21,3.8,15,3.8z M9.2-7.1c0,0.5,0.4,0.9,0.9,0.9h3.9
			v4c0,0.5,0.4,0.9,0.9,0.9c0.5,0,0.9-0.4,0.9-0.9v-4h4c0.5,0,0.9-0.4,0.9-0.9c0-0.5-0.4-0.9-0.9-0.9h-4v-3.9c0-0.5-0.4-0.9-0.9-0.9
			c-0.5,0-0.9,0.4-0.9,0.9V-8h-3.9C9.6-8,9.2-7.6,9.2-7.1z"/>
	</g>
	<text transform="matrix(1 0 0 1 263 1953)" class="st2 st3">Design Variations</text>
	<text transform="matrix(1 0 0 1 263 1971)" class="st4 st3">Symbols are supported in up to nine weights and three scales.</text>
	<text transform="matrix(1 0 0 1 263 1989)" class="st4 st3">For optimal layout with text and other symbols, vertically align</text>
	<text transform="matrix(1 0 0 1 263 2007)" class="st4 st3">symbols with the adjacent text.</text>
	<line class="st5" x1="776" y1="1919" x2="776" y2="1933"/>
	<g transform="matrix(1 0 0 1 776 1933)">
		<path d="M3.3,0.2c0.5,0,0.8-0.2,1-0.7L5.5-4h5.8l1.3,3.4C12.7,0,13,0.2,13.5,0.2c0.5,0,0.8-0.3,0.8-0.8c0-0.2,0-0.3-0.1-0.5
			L9.7-13.4C9.4-14,9-14.3,8.4-14.3c-0.6,0-1,0.3-1.2,0.9L2.6-1.2C2.5-1,2.5-0.8,2.5-0.6C2.5-0.1,2.8,0.2,3.3,0.2z M6-5.5l2.4-6.6h0
			l2.4,6.6H6z"/>
	</g>
	<line class="st5" x1="793.2" y1="1919" x2="793.2" y2="1933"/>
	<text transform="matrix(1 0 0 1 776 1953)" class="st2 st3">Margins</text>
	<text transform="matrix(1 0 0 1 776 1971)" class="st4 st3">Leading and trailing margins on the left and right side of each symbol</text>
	<text transform="matrix(1 0 0 1 776 1989)" class="st4 st3">can be adjusted by modifying the x-location of the margin guidelines.</text>
	<text transform="matrix(1 0 0 1 776 2007)" class="st4 st3">Modifications are automatically applied proportionally to all</text>
	<text transform="matrix(1 0 0 1 776 2025)" class="st4 st3">scales and weights.</text>
	<g transform="matrix(1 0 0 1 1289 1933)">
		<path d="M2.8,1.9l1.7,1.7c0.9,0.9,1.8,0.8,2.8-0.2L18-8.4l-1-1L6.4,2.3c-0.4,0.4-0.7,0.5-1.2,0L4.1,1.1C3.6,0.7,3.7,0.3,4.1,0
			l11.5-10.8l-1-1L3-0.9C2.1,0,2,1,2.8,1.9z M9.3-16.3c-0.4,0.4-0.4,1-0.2,1.4c0.2,0.4,0.7,0.6,1.3,0.4c1.5-0.3,3-0.4,4.4,0.5
			l-0.6,1.5c-0.3,0.8-0.2,1.4,0.4,2l2.3,2.3c0.5,0.5,0.9,0.5,1.5,0.4L19.4-8l0.7,0.7l0,0.6c0,0.5,0.1,0.9,0.6,1.4l0.8,0.7
			c0.5,0.5,1.1,0.5,1.6,0l2.9-2.9c0.5-0.5,0.4-1.1,0-1.5L25-9.9c-0.5-0.5-0.8-0.6-1.3-0.6l-0.6,0l-0.6-0.6l0.2-1.1
			c0.1-0.6,0-1-0.6-1.6L19.9-16C16.6-19.3,12.1-19.2,9.3-16.3z M10.8-16c2.4-1.8,5.7-1.5,7.9,0.8l2.4,2.4c0.2,0.2,0.3,0.4,0.2,0.8
			L21-10.5l1.5,1.5l1-0.1c0.3,0,0.3,0,0.5,0.2l0.6,0.6l-2.4,2.4l-0.6-0.6c-0.2-0.2-0.2-0.3-0.2-0.5l0.1-1L20-9.5l-1.5,0.3
			c-0.3,0.1-0.5,0-0.7-0.2l-2-2c-0.3-0.2-0.3-0.4-0.1-0.8l0.9-2.1c-1.6-1.5-3.6-2.1-5.6-1.5C10.7-15.7,10.6-15.8,10.8-16z"/>
	</g>
	<text transform="matrix(1 0 0 1 1289 1953)" class="st2 st3">Exporting</text>
	<text transform="matrix(1 0 0 1 1289 1971)" class="st4 st3">Symbols should be outlined when exporting to ensure the</text>
	<text transform="matrix(1 0 0 1 1289 1989)" class="st4 st3">design is preserved when submitting to Xcode.</text>
	<text id="template-version" transform="matrix(1 0 0 1 2952.4141 1933)" class="st4 st3">Template v.4.0</text>
	<text transform="matrix(1 0 0 1 2865.4575 1951)" class="st4 st3">Requires Xcode 14 or greater</text>
	<text id="descriptive-name" transform="matrix(1 0 0 1 2865.4956 1969)" class="st4 st3">Generated from custom.circle</text>
	<text transform="matrix(1 0 0 1 2912.4111 1987)" class="st4 st3">Typeset at 100 points</text>
	<text transform="matrix(1 0 0 1 263 726)" class="st4 st3">Small</text>
	<text transform="matrix(1 0 0 1 263 1156)" class="st4 st3">Medium</text>
	<text transform="matrix(1 0 0 1 263 1586)" class="st4 st3">Large</text>
</g>
<g id="Guides">
	<g id="H-reference" transform="matrix(1 0 0 1 339 696)">
		<path class="st6" d="M1,0h2.6l25.7-67.1H30v-3.3h-1.9L1,0z M11.7-24.5H47l-0.8-2.2H12.4L11.7-24.5z M55.1,0h2.6L30.6-70.5h-1.2
			v3.3L55.1,0z"/>
	</g>
	<line id="Baseline-S" class="st7" x1="263" y1="696" x2="3036" y2="696"/>
	<line id="Capline-S" class="st7" x1="263" y1="625.5" x2="3036" y2="625.5"/>
	<g id="H-reference_00000062876401509675700920000007229797590218972844_" transform="matrix(1 0 0 1 339 1126)">
		<path class="st6" d="M1,0h2.6l25.7-67.1H30v-3.3h-1.9L1,0z M11.7-24.5H47l-0.8-2.2H12.4L11.7-24.5z M55.1,0h2.6L30.6-70.5h-1.2
			v3.3L55.1,0z"/>
	</g>
	<line id="Baseline-M" class="st7" x1="263" y1="1126" x2="3036" y2="1126"/>
	<line id="Capline-M" class="st7" x1="263" y1="1055.5" x2="3036" y2="1055.5"/>
	<g id="H-reference_00000132794818482936963410000007918580937859513249_" transform="matrix(1 0 0 1 339 1556)">
		<path class="st6" d="M1,0h2.6l25.7-67.1H30v-3.3h-1.9L1,0z M11.7-24.5H47l-0.8-2.2H12.4L11.7-24.5z M55.1,0h2.6L30.6-70.5h-1.2
			v3.3L55.1,0z"/>
	</g>
	<line id="Baseline-L" class="st7" x1="263" y1="1556" x2="3036" y2="1556"/>
	<line id="Capline-L" class="st7" x1="263" y1="1485.5" x2="3036" y2="1485.5"/>
	<line id="left-margin-Ultralight-S" class="st5" x1="515.6" y1="600.8" x2="515.6" y2="720.1"/>
	<line id="right-margin-Ultralight-S" class="st5" x1="603.8" y1="600.8" x2="603.8" y2="720.1"/>
	<line id="left-margin-Regular-S" class="st5" x1="1403.6" y1="600.8" x2="1403.6" y2="720.1"/>
	<line id="right-margin-Regular-S" class="st5" x1="1496.1" y1="600.8" x2="1496.1" y2="720.1"/>
	<line id="left-margin-Black-S" class="st5" x1="2884.6" y1="600.8" x2="2884.6" y2="720.1"/>
	<line id="right-margin-Black-S" class="st5" x1="2982.2" y1="600.8" x2="2982.2" y2="720.1"/>
</g>
<g id="Symbols">
	<g id="Black-S" transform="matrix(1 0 0 1 2884.57 696)">
		<g>
			<path d="M51.7,22c-1,0-2-0.4-2.8-1.1c-0.1-0.1-10.9-10.5-22.2-22.6c-6.7-7.1-12.2-13.4-16.5-18.7c-5.6-7-9.1-12.2-10.6-16
				c-2-5.3-3-11.4-2.8-17.1c0.2-6.4,1.9-12,4.8-16.3c3.9-5.7,9.7-8.8,16.9-8.9c6-0.1,12.1,2,17.7,6.1c2.5,1.8,4.8,4,7,6.5
				c5.2-5.6,11.3-10.1,17.9-13.1c8-3.6,16.1-4.6,22.8-2.8c4.4,1.2,8,3.5,10.8,6.8c2.9,3.5,4.7,8,5.4,13.3c0.7,5.2-0.2,10.8-2.6,16.5
				c-2,4.8-5,9.7-9.2,15c-7.4,9.3-17,17.9-24,24.1c-4.1,3.6-8.3,7.4-9.4,9c-3.8,5.9,0.1,13.1,0.1,13.2c1,1.7,0.5,3.9-1,5.1
				C53.4,21.7,52.6,22,51.7,22z M19-70.9c-0.1,0-0.2,0-0.2,0c-4.5,0.1-8,1.9-10.4,5.4c-4.2,6.1-4.7,17.1-1.2,26.1
				c3.5,9.2,24.3,31.4,38.4,45.7c0.3-2.5,1.1-5.2,2.8-7.8c1.6-2.5,5.5-6,10.8-10.7c13.3-11.8,35.5-31.6,33.2-48.7
				c-0.5-3.9-1.8-7-3.7-9.3c-1.7-2.1-4-3.5-6.8-4.3C77-75.7,70.8-74.9,64.5-72c-6,2.7-11.8,7.1-16.5,12.5c0.1,0.2,0.2,0.4,0.4,0.6
				c3.2,5.8,5.4,9.6,4.3,15.6c-0.4,2.2-2.5,3.6-4.6,3.2c-2.2-0.4-3.6-2.5-3.2-4.6c0.6-3-0.3-4.6-3.4-10.3c-0.4-0.7-0.8-1.4-1.3-2.1
				c-0.3-0.3-0.5-0.6-0.7-1c-2.2-3.2-5-6-7.9-8.2C27.6-69.3,23.2-70.9,19-70.9z"/>
		</g>
		<g>
			<path d="M65.4-16.7c-5.7,0-11.2-1.7-14.1-3.7c-1.2-0.9-1.4-2.5-0.6-3.7c0.9-1.2,2.5-1.4,3.7-0.6c2.2,1.6,8.7,3.4,14.4,2.4
				c3.5-0.6,6.1-2.1,7.7-4.4c0.8-1.2,2.5-1.5,3.7-0.7c1.2,0.8,1.5,2.5,0.7,3.7c-2.4,3.5-6.3,5.8-11.2,6.6
				C68.4-16.8,66.9-16.7,65.4-16.7z"/>
		</g>
		<g>
			<path d="M73.9-25.1c-3.4,0-6.6-0.9-8.8-2.5c-1.2-0.9-1.4-2.5-0.6-3.7c0.9-1.2,2.5-1.4,3.7-0.6c1.6,1.1,4.9,2,8.6,1.2
				c2.1-0.5,5.1-1.7,6.8-4.7c0.7-1.3,2.3-1.7,3.6-1c1.3,0.7,1.7,2.3,1,3.6c-2.1,3.7-5.7,6.3-10.3,7.3C76.6-25.2,75.3-25.1,73.9-25.1
				z"/>
		</g>
	</g>
	<g id="Regular-S" transform="matrix(1 0 0 1 1403.58 696)">
		<g>
			<path d="M48.8,15.1c-0.9,0-1.7-0.3-2.4-1C46.3,14.1,36.9,5,27.1-5.4c-5.8-6.2-10.6-11.7-14.4-16.3c-4.9-6.1-7.9-10.6-9.2-14
				C1.8-40.3,1-45.6,1.2-50.6C1.4-56.1,2.8-61,5.4-64.8c3.4-5,8.4-7.7,14.7-7.7c5.2-0.1,10.5,1.8,15.4,5.3c2.2,1.6,4.2,3.5,6.1,5.7
				c4.5-4.9,9.8-8.8,15.6-11.4c7-3.1,14-4,19.8-2.4c3.8,1,7,3,9.4,6c2.5,3,4.1,6.9,4.7,11.6c0.6,4.5-0.2,9.4-2.3,14.4
				c-1.8,4.2-4.4,8.5-8,13.1c-6.4,8.1-14.8,15.5-20.9,21c-3.6,3.2-7.2,6.4-8.1,7.8C48.4,3.7,51.8,9.9,51.8,10
				c0.8,1.5,0.5,3.4-0.9,4.4C50.3,14.9,49.5,15.1,48.8,15.1z M20.3-65.6c-0.1,0-0.1,0-0.2,0c-3.9,0.1-7,1.6-9.1,4.7
				C7.5-55.6,7-46,10-38.2c3.1,8,21.2,27.3,33.4,39.7c0.3-2.2,1-4.5,2.4-6.8c1.4-2.2,4.8-5.2,9.4-9.3c11.5-10.3,30.9-27.5,28.9-42.3
				c-0.4-3.4-1.5-6.1-3.2-8.1c-1.5-1.8-3.5-3-5.9-3.7c-4.3-1.2-9.7-0.4-15.2,2c-5.2,2.3-10.2,6.1-14.3,10.8c0.1,0.2,0.2,0.4,0.3,0.5
				c2.8,5,4.7,8.4,3.7,13.5c-0.3,1.9-2.1,3.1-4,2.8c-1.9-0.3-3.1-2.1-2.8-4c0.5-2.6-0.2-4-3-8.9c-0.3-0.6-0.7-1.2-1.1-1.8
				c-0.2-0.3-0.4-0.5-0.6-0.9c-1.9-2.8-4.3-5.3-6.8-7.1C27.8-64.2,24-65.6,20.3-65.6z"/>
		</g>
		<g>
			<path d="M60.7-18.5c-4.9,0-9.8-1.5-12.2-3.2c-1-0.7-1.3-2.2-0.5-3.2c0.7-1,2.2-1.3,3.2-0.5c1.9,1.4,7.5,3,12.6,2.1
				c3-0.5,5.3-1.8,6.7-3.9c0.7-1,2.2-1.3,3.2-0.6c1,0.7,1.3,2.2,0.6,3.2c-2.1,3.1-5.5,5.1-9.7,5.8C63.3-18.6,62-18.5,60.7-18.5z"/>
		</g>
		<g>
			<path d="M68.1-25.8c-2.9,0-5.7-0.8-7.7-2.2c-1-0.7-1.3-2.2-0.5-3.2c0.7-1,2.2-1.3,3.2-0.5c1.4,1,4.3,1.7,7.5,1
				c1.9-0.4,4.4-1.4,5.9-4.1c0.6-1.1,2-1.5,3.1-0.9c1.1,0.6,1.5,2,0.9,3.1c-1.8,3.2-5,5.5-8.9,6.3C70.4-25.9,69.3-25.8,68.1-25.8z"
				/>
		</g>
	</g>
	<g id="Ultralight-S" transform="matrix(1 0 0 1 515.649 696)">
		<g>
			<path d="M45.1,9.2c-0.8,0-1.5-0.3-2.1-0.8c-0.1-0.1-8.2-7.9-16.8-17.1c-5-5.4-9.2-10.1-12.5-14.2c-4.3-5.3-6.9-9.2-8-12.1
				c-1.5-4-2.3-8.6-2.1-13c0.2-4.8,1.5-9.1,3.7-12.3c2.9-4.3,7.3-6.7,12.8-6.7c4.5-0.1,9.2,1.5,13.4,4.6c1.9,1.4,3.7,3.1,5.3,4.9
				c3.9-4.3,8.6-7.6,13.5-9.9c6.1-2.7,12.2-3.5,17.2-2.1c3.3,0.9,6.1,2.6,8.2,5.2c2.2,2.6,3.6,6,4.1,10.1c0.5,3.9-0.1,8.1-2,12.5
				c-1.5,3.6-3.8,7.4-7,11.4C67.2-23.2,60-16.8,54.7-12.1c-3.1,2.8-6.3,5.6-7.1,6.8c-2.9,4.5,0.1,9.9,0.1,10
				c0.7,1.3,0.4,2.9-0.8,3.8C46.4,9,45.7,9.2,45.1,9.2z M20.4-61c-0.1,0-0.1,0-0.2,0c-3.4,0-6.1,1.4-7.9,4.1
				C9.2-52.3,8.8-44,11.4-37.2C14-30.2,29.8-13.4,40.5-2.6c0.2-1.9,0.9-3.9,2.1-5.9c1.2-1.9,4.1-4.5,8.1-8.1
				c10-8.9,26.8-23.9,25.1-36.8c-0.4-2.9-1.3-5.3-2.8-7c-1.3-1.6-3-2.7-5.1-3.2c-3.7-1-8.4-0.4-13.2,1.8c-4.5,2-8.9,5.3-12.4,9.4
				c0.1,0.2,0.2,0.3,0.3,0.5c2.5,4.4,4.1,7.3,3.3,11.8c-0.3,1.6-1.9,2.7-3.5,2.4c-1.6-0.3-2.7-1.9-2.4-3.5c0.4-2.3-0.2-3.5-2.6-7.8
				c-0.3-0.5-0.6-1.1-1-1.6c-0.2-0.2-0.4-0.5-0.5-0.7c-1.7-2.4-3.7-4.6-6-6.2C26.8-59.8,23.5-61,20.4-61z"/>
		</g>
		<g>
			<path d="M55.5-20c-4.3,0-8.5-1.3-10.6-2.8c-0.9-0.6-1.1-1.9-0.4-2.8c0.6-0.9,1.9-1.1,2.8-0.4c1.7,1.2,6.6,2.6,10.9,1.8
				c2.6-0.5,4.6-1.6,5.8-3.4c0.6-0.9,1.9-1.1,2.8-0.5c0.9,0.6,1.1,1.9,0.5,2.8c-1.8,2.7-4.8,4.4-8.4,5C57.7-20.1,56.6-20,55.5-20z"
				/>
		</g>
		<g>
			<path d="M61.9-26.4c-2.5,0-5-0.7-6.7-1.9c-0.9-0.6-1.1-1.9-0.4-2.8c0.6-0.9,1.9-1.1,2.8-0.4c1.2,0.9,3.7,1.5,6.5,0.9
				c1.6-0.4,3.8-1.3,5.1-3.6c0.5-1,1.8-1.3,2.7-0.8c1,0.5,1.3,1.8,0.8,2.7c-1.6,2.8-4.3,4.7-7.8,5.5C63.9-26.5,62.9-26.4,61.9-26.4z
				"/>
		</g>
	</g>
</g>
</svg>
