<?xml version="1.0" encoding="utf-8"?>
<!-- Generator: Adobe Illustrator 27.2.0, SVG Export Plug-In . SVG Version: 6.00 Build 0)  -->
<svg version="1.1" id="레이어_1" xmlns="http://www.w3.org/2000/svg" xmlns:xlink="http://www.w3.org/1999/xlink" x="0px"
	 y="0px" viewBox="0 0 3300 2200" style="enable-background:new 0 0 3300 2200;" xml:space="preserve">
<style type="text/css">
	.st0{fill:#FFFFFF;}
	.st1{fill:none;stroke:#000000;stroke-width:0.5;}
	.st2{font-family:'Helvetica-Bold';}
	.st3{font-size:13px;}
	.st4{font-family:'Helvetica';}
	.st5{fill:none;stroke:#00AEEF;stroke-width:0.5;}
	.st6{fill:#27AAE1;}
	.st7{fill:none;stroke:#27AAE1;stroke-width:0.5;}
</style>
<g id="Notes">
	<rect id="artboard" class="st0" width="3300" height="2200"/>
	<line class="st1" x1="263" y1="292" x2="3036" y2="292"/>
	<text transform="matrix(1 0 0 1 263 322)" class="st2 st3">Weight/Scale Variations</text>
	<text transform="matrix(1 0 0 1 534.0633 322)" class="st4 st3">Ultralight</text>
	<text transform="matrix(1 0 0 1 843.7775 322)" class="st4 st3">Thin</text>
	<text transform="matrix(1 0 0 1 1139.035 322)" class="st4 st3">Light</text>
	<text transform="matrix(1 0 0 1 1427.0773 322)" class="st4 st3">Regular</text>
	<text transform="matrix(1 0 0 1 1723.4419 322)" class="st4 st3">Medium</text>
	<text transform="matrix(1 0 0 1 2016.1719 322)" class="st4 st3">Semibold</text>
	<text transform="matrix(1 0 0 1 2326.9705 322)" class="st4 st3">Bold</text>
	<text transform="matrix(1 0 0 1 2618.2659 322)" class="st4 st3">Heavy</text>
	<text transform="matrix(1 0 0 1 2917.5054 322)" class="st4 st3">Black</text>
	<line class="st1" x1="263" y1="1903" x2="3036" y2="1903"/>
	<g transform="matrix(1 0 0 1 263 1933)">
		<path d="M9.2,0.8c4.3,0,7.9-3.6,7.9-7.9c0-4.3-3.6-7.9-7.9-7.9c-4.3,0-7.9,3.6-7.9,7.9C1.4-2.7,5,0.8,9.2,0.8z M9.2-0.7
			c-3.5,0-6.4-2.8-6.4-6.4c0-3.6,2.8-6.4,6.4-6.4c3.6,0,6.4,2.8,6.4,6.4C15.6-3.5,12.8-0.7,9.2-0.7z M5.7-7.1c0,0.4,0.3,0.7,0.8,0.7
			h2.1v2.1c0,0.4,0.3,0.7,0.7,0.7c0.4,0,0.7-0.3,0.7-0.7v-2.1h2.1c0.4,0,0.7-0.3,0.7-0.7c0-0.4-0.3-0.7-0.7-0.7H10v-2.1
			c0-0.4-0.3-0.8-0.7-0.8c-0.4,0-0.7,0.3-0.7,0.8v2.1H6.4C6-7.8,5.7-7.5,5.7-7.1z"/>
	</g>
	<g transform="matrix(1 0 0 1 281.867 1933)">
		<path d="M11.7,2.9c5.4,0,10-4.5,10-10c0-5.4-4.5-10-10-10c-5.4,0-10,4.5-10,10C1.7-1.6,6.3,2.9,11.7,2.9z M11.7,1.2
			c-4.6,0-8.3-3.7-8.3-8.3c0-4.6,3.7-8.3,8.3-8.3c4.6,0,8.3,3.7,8.3,8.3C20-2.4,16.3,1.2,11.7,1.2z M7.2-7.1c0,0.5,0.3,0.8,0.8,0.8
			h2.9v2.9c0,0.5,0.3,0.8,0.8,0.8c0.5,0,0.8-0.3,0.8-0.8v-2.9h2.9c0.5,0,0.8-0.3,0.8-0.8c0-0.5-0.3-0.8-0.8-0.8h-2.9v-2.9
			c0-0.5-0.3-0.8-0.8-0.8c-0.5,0-0.8,0.3-0.8,0.8v2.9H8C7.5-7.9,7.2-7.5,7.2-7.1z"/>
	</g>
	<g transform="matrix(1 0 0 1 305.646 1933)">
		<path d="M15,5.7c7,0,12.7-5.8,12.7-12.7c0-7-5.8-12.7-12.7-12.7C8-19.8,2.3-14,2.3-7.1C2.3-0.1,8,5.7,15,5.7z M15,3.8
			C8.9,3.8,4.1-1,4.1-7.1c0-6,4.8-10.9,10.9-10.9c6,0,10.9,4.9,10.9,10.9C25.9-1,21,3.8,15,3.8z M9.2-7.1c0,0.5,0.4,0.9,0.9,0.9h3.9
			v4c0,0.5,0.4,0.9,0.9,0.9c0.5,0,0.9-0.4,0.9-0.9v-4h4c0.5,0,0.9-0.4,0.9-0.9c0-0.5-0.4-0.9-0.9-0.9h-4v-3.9c0-0.5-0.4-0.9-0.9-0.9
			c-0.5,0-0.9,0.4-0.9,0.9V-8h-3.9C9.6-8,9.2-7.6,9.2-7.1z"/>
	</g>
	<text transform="matrix(1 0 0 1 263 1953)" class="st2 st3">Design Variations</text>
	<text transform="matrix(1 0 0 1 263 1971)" class="st4 st3">Symbols are supported in up to nine weights and three scales.</text>
	<text transform="matrix(1 0 0 1 263 1989)" class="st4 st3">For optimal layout with text and other symbols, vertically align</text>
	<text transform="matrix(1 0 0 1 263 2007)" class="st4 st3">symbols with the adjacent text.</text>
	<line class="st5" x1="776" y1="1919" x2="776" y2="1933"/>
	<g transform="matrix(1 0 0 1 776 1933)">
		<path d="M3.3,0.2c0.5,0,0.8-0.2,1-0.7L5.5-4h5.8l1.3,3.4C12.7,0,13,0.2,13.5,0.2c0.5,0,0.8-0.3,0.8-0.8c0-0.2,0-0.3-0.1-0.5
			L9.7-13.4C9.4-14,9-14.3,8.4-14.3c-0.6,0-1,0.3-1.2,0.9L2.6-1.2C2.5-1,2.5-0.8,2.5-0.6C2.5-0.1,2.8,0.2,3.3,0.2z M6-5.5l2.4-6.6h0
			l2.4,6.6H6z"/>
	</g>
	<line class="st5" x1="793.2" y1="1919" x2="793.2" y2="1933"/>
	<text transform="matrix(1 0 0 1 776 1953)" class="st2 st3">Margins</text>
	<text transform="matrix(1 0 0 1 776 1971)" class="st4 st3">Leading and trailing margins on the left and right side of each symbol</text>
	<text transform="matrix(1 0 0 1 776 1989)" class="st4 st3">can be adjusted by modifying the x-location of the margin guidelines.</text>
	<text transform="matrix(1 0 0 1 776 2007)" class="st4 st3">Modifications are automatically applied proportionally to all</text>
	<text transform="matrix(1 0 0 1 776 2025)" class="st4 st3">scales and weights.</text>
	<g transform="matrix(1 0 0 1 1289 1933)">
		<path d="M2.8,1.9l1.7,1.7c0.9,0.9,1.8,0.8,2.8-0.2L18-8.4l-1-1L6.4,2.3c-0.4,0.4-0.7,0.5-1.2,0L4.1,1.1C3.6,0.7,3.7,0.3,4.1,0
			l11.5-10.8l-1-1L3-0.9C2.1,0,2,1,2.8,1.9z M9.3-16.3c-0.4,0.4-0.4,1-0.2,1.4c0.2,0.4,0.7,0.6,1.3,0.4c1.5-0.3,3-0.4,4.4,0.5
			l-0.6,1.5c-0.3,0.8-0.2,1.4,0.4,2l2.3,2.3c0.5,0.5,0.9,0.5,1.5,0.4L19.4-8l0.7,0.7l0,0.6c0,0.5,0.1,0.9,0.6,1.4l0.8,0.7
			c0.5,0.5,1.1,0.5,1.6,0l2.9-2.9c0.5-0.5,0.4-1.1,0-1.5L25-9.9c-0.5-0.5-0.8-0.6-1.3-0.6l-0.6,0l-0.6-0.6l0.2-1.1
			c0.1-0.6,0-1-0.6-1.6L19.9-16C16.6-19.3,12.1-19.2,9.3-16.3z M10.8-16c2.4-1.8,5.7-1.5,7.9,0.8l2.4,2.4c0.2,0.2,0.3,0.4,0.2,0.8
			L21-10.5l1.5,1.5l1-0.1c0.3,0,0.3,0,0.5,0.2l0.6,0.6l-2.4,2.4l-0.6-0.6c-0.2-0.2-0.2-0.3-0.2-0.5l0.1-1L20-9.5l-1.5,0.3
			c-0.3,0.1-0.5,0-0.7-0.2l-2-2c-0.3-0.2-0.3-0.4-0.1-0.8l0.9-2.1c-1.6-1.5-3.6-2.1-5.6-1.5C10.7-15.7,10.6-15.8,10.8-16z"/>
	</g>
	<text transform="matrix(1 0 0 1 1289 1953)" class="st2 st3">Exporting</text>
	<text transform="matrix(1 0 0 1 1289 1971)" class="st4 st3">Symbols should be outlined when exporting to ensure the</text>
	<text transform="matrix(1 0 0 1 1289 1989)" class="st4 st3">design is preserved when submitting to Xcode.</text>
	<text id="template-version" transform="matrix(1 0 0 1 2952.4141 1933)" class="st4 st3">Template v.4.0</text>
	<text transform="matrix(1 0 0 1 2865.4575 1951)" class="st4 st3">Requires Xcode 14 or greater</text>
	<text id="descriptive-name" transform="matrix(1 0 0 1 2865.4956 1969)" class="st4 st3">Generated from custom.circle</text>
	<text transform="matrix(1 0 0 1 2912.4111 1987)" class="st4 st3">Typeset at 100 points</text>
	<text transform="matrix(1 0 0 1 263 726)" class="st4 st3">Small</text>
	<text transform="matrix(1 0 0 1 263 1156)" class="st4 st3">Medium</text>
	<text transform="matrix(1 0 0 1 263 1586)" class="st4 st3">Large</text>
</g>
<g id="Guides">
	<g id="H-reference" transform="matrix(1 0 0 1 339 696)">
		<path class="st6" d="M1,0h2.6l25.7-67.1H30v-3.3h-1.9L1,0z M11.7-24.5H47l-0.8-2.2H12.4L11.7-24.5z M55.1,0h2.6L30.6-70.5h-1.2
			v3.3L55.1,0z"/>
	</g>
	<line id="Baseline-S" class="st7" x1="263" y1="696" x2="3036" y2="696"/>
	<line id="Capline-S" class="st7" x1="263" y1="625.5" x2="3036" y2="625.5"/>
	<g id="H-reference_00000141455714033023939520000016292603761346482087_" transform="matrix(1 0 0 1 339 1126)">
		<path class="st6" d="M1,0h2.6l25.7-67.1H30v-3.3h-1.9L1,0z M11.7-24.5H47l-0.8-2.2H12.4L11.7-24.5z M55.1,0h2.6L30.6-70.5h-1.2
			v3.3L55.1,0z"/>
	</g>
	<line id="Baseline-M" class="st7" x1="263" y1="1126" x2="3036" y2="1126"/>
	<line id="Capline-M" class="st7" x1="263" y1="1055.5" x2="3036" y2="1055.5"/>
	<g id="H-reference_00000113335994231937272190000014662809434022904497_" transform="matrix(1 0 0 1 339 1556)">
		<path class="st6" d="M1,0h2.6l25.7-67.1H30v-3.3h-1.9L1,0z M11.7-24.5H47l-0.8-2.2H12.4L11.7-24.5z M55.1,0h2.6L30.6-70.5h-1.2
			v3.3L55.1,0z"/>
	</g>
	<line id="Baseline-L" class="st7" x1="263" y1="1556" x2="3036" y2="1556"/>
	<line id="Capline-L" class="st7" x1="263" y1="1485.5" x2="3036" y2="1485.5"/>
	<line id="left-margin-Ultralight-S" class="st5" x1="515.6" y1="600.8" x2="515.6" y2="720.1"/>
	<line id="right-margin-Ultralight-S" class="st5" x1="603.8" y1="600.8" x2="603.8" y2="720.1"/>
	<line id="left-margin-Regular-S" class="st5" x1="1403.6" y1="600.8" x2="1403.6" y2="720.1"/>
	<line id="right-margin-Regular-S" class="st5" x1="1496.1" y1="600.8" x2="1496.1" y2="720.1"/>
	<line id="left-margin-Black-S" class="st5" x1="2884.6" y1="600.8" x2="2884.6" y2="720.1"/>
	<line id="right-margin-Black-S" class="st5" x1="2982.2" y1="600.8" x2="2982.2" y2="720.1"/>
</g>
<g id="Symbols">
	<g id="Black-S" transform="matrix(1 0 0 1 2884.57 696)">
		<g>
			<path d="M43.6,18.6c-11.4,0-21.7-3.9-30.2-11.4C7.2,1.7,2.2-5.7-1.1-14.1c-3.1-7.9-4.5-16.4-4.2-24.5C-4.7-52.4,0.4-65,9.1-74.3
				c4.5-4.8,9.8-8.4,15.8-10.9c6.3-2.6,13.1-3.8,20.3-3.6c2.5,0.1,4.5,2.2,4.4,4.7s-2.2,4.5-4.7,4.4C33.4-80,23.3-76,15.8-68
				c-7.2,7.6-11.5,18.2-12,29.7c-0.3,6.8,0.9,14,3.6,20.8c2.8,7.1,6.9,13.3,12.1,17.8C23.5,4,28,6.5,33,8c5.5,1.6,11.5,1.9,17.9,0.9
				C67,6.2,78.7,0.7,85.7-7.4c3.3-3.8,5.6-8.3,6.9-13.3c1.3-5.1,1.7-10.9,1-17.3c-1.1-11-5.7-18.7-14-23.6
				c-6.5-3.8-15.5-5.9-26.8-6.3c-2.5-0.1-4.5-2.2-4.4-4.7c0.1-2.5,2.2-4.5,4.7-4.4c13,0.4,23.2,2.8,31.2,7.5
				c10.8,6.4,17,16.7,18.4,30.6c1.5,15.3-1.9,27.9-10.1,37.5c-8.4,9.8-22,16.3-40.2,19.3C49.4,18.3,46.4,18.6,43.6,18.6z"/>
		</g>
		<g>
			<path d="M13.7-42.6c-1.2,0-2.4-0.7-2.8-2c-0.6-1.6,0.2-3.3,1.8-3.9l20.1-7.6c1.6-0.6,3.3,0.2,3.9,1.8c0.6,1.6-0.2,3.3-1.8,3.9
				l-20.1,7.6C14.4-42.7,14.1-42.6,13.7-42.6z"/>
		</g>
		<g>
			<path d="M82.4-42.6c-0.3,0-0.6,0-0.9-0.1l-19.9-6.4c-1.6-0.5-2.5-2.2-2-3.8c0.5-1.6,2.2-2.5,3.8-2l19.9,6.4
				c1.6,0.5,2.5,2.2,2,3.8C84.9-43.4,83.7-42.6,82.4-42.6z"/>
		</g>
		<g>
			<path d="M50.1-1.3c-5.2,0-11.2-1.4-16.5-3.9c-3.4-1.6-9.2-4.8-9.9-8.9c-0.3-1.7,0.8-3.2,2.4-3.5c1.6-0.3,3.2,0.8,3.5,2.4
				c0.4,0.8,3,3.2,8,5.2C42.8-7.9,48.3-7,52.7-7.5c6.7-0.8,10.4-4.8,11.4-12.2c0.2-1.7,1.7-2.8,3.4-2.6c1.7,0.2,2.8,1.7,2.6,3.4
				C69.3-13,67-8.5,63.2-5.4c-3.2,2.6-7.4,4-12.4,4.1C50.6-1.3,50.3-1.3,50.1-1.3z"/>
		</g>
		<g>
			<path d="M27.8-28c-1.7,0-3-1.4-3-3v-8.2c0-1.7,1.4-3,3-3s3,1.4,3,3v8.2C30.9-29.4,29.5-28,27.8-28z"/>
		</g>
		<g>
			<path d="M64.2-28.9c-1.7,0-3-1.4-3-3l0-7.8c0-1.7,1.4-3,3-3c0,0,0,0,0,0c1.7,0,3,1.4,3,3l0,7.8C67.2-30.3,65.9-28.9,64.2-28.9
				C64.2-28.9,64.2-28.9,64.2-28.9z"/>
		</g>
	</g>
	<g id="Regular-S" transform="matrix(1 0 0 1 1403.58 696)">
		<g>
			<path d="M40.9,11.6C31,11.6,22,8.2,14.7,1.7C9.3-3.1,4.9-9.5,2.1-16.9c-2.7-6.9-3.9-14.3-3.6-21.3c0.5-12,5-23,12.6-31
				c3.9-4.1,8.5-7.3,13.7-9.5c5.4-2.3,11.4-3.3,17.6-3.2c2.2,0.1,3.9,1.9,3.9,4.1c-0.1,2.2-1.9,3.9-4.1,3.9
				c-10-0.3-18.8,3.2-25.4,10.2c-6.3,6.6-10,15.8-10.4,25.9c-0.3,5.9,0.8,12.2,3.1,18.1c2.4,6.2,6,11.5,10.5,15.5
				c3.5,3.1,7.5,5.3,11.8,6.6c4.8,1.4,10,1.7,15.6,0.7c14-2.3,24.1-7,30.2-14.1c2.8-3.3,4.9-7.2,6-11.6c1.2-4.4,1.5-9.5,0.9-15
				c-1-9.6-4.9-16.3-12.1-20.5c-5.7-3.3-13.5-5.2-23.3-5.4c-2.2-0.1-3.9-1.9-3.9-4.1c0.1-2.2,1.9-3.9,4.1-3.9
				c11.3,0.3,20.2,2.5,27.1,6.5c9.4,5.5,14.8,14.5,16,26.6c1.3,13.3-1.6,24.3-8.8,32.6C76.2,2.7,64.5,8.3,48.6,10.9
				C46,11.4,43.4,11.6,40.9,11.6z"/>
		</g>
		<g>
			<path d="M15-41.7c-1.1,0-2.1-0.7-2.5-1.7c-0.5-1.4,0.2-2.9,1.5-3.4l17.5-6.6c1.4-0.5,2.9,0.2,3.4,1.5c0.5,1.4-0.2,2.9-1.5,3.4
				l-17.5,6.6C15.6-41.7,15.3-41.7,15-41.7z"/>
		</g>
		<g>
			<path d="M74.7-41.7c-0.3,0-0.5,0-0.8-0.1l-17.3-5.6c-1.4-0.4-2.2-1.9-1.7-3.3c0.4-1.4,1.9-2.2,3.3-1.7l17.3,5.6
				c1.4,0.4,2.2,1.9,1.7,3.3C76.9-42.4,75.9-41.7,74.7-41.7z"/>
		</g>
		<g>
			<path d="M46.6-5.7c-4.5,0-9.7-1.2-14.4-3.4c-2.9-1.4-8-4.2-8.6-7.8c-0.3-1.4,0.7-2.8,2.1-3.1c1.4-0.3,2.8,0.7,3.1,2.1
				c0.3,0.7,2.6,2.8,6.9,4.5c4.5,1.9,9.3,2.7,13.1,2.2c5.8-0.7,9.1-4.2,9.9-10.6c0.2-1.4,1.5-2.5,3-2.3c1.4,0.2,2.5,1.5,2.3,3
				c-0.7,5.2-2.7,9.1-6,11.8c-2.8,2.3-6.5,3.5-10.8,3.6C47-5.7,46.8-5.7,46.6-5.7z"/>
		</g>
		<g>
			<path d="M27.3-29c-1.5,0-2.6-1.2-2.6-2.6v-7.1c0-1.5,1.2-2.6,2.6-2.6c1.5,0,2.6,1.2,2.6,2.6v7.1C29.9-30.1,28.7-29,27.3-29z"/>
		</g>
		<g>
			<path d="M58.9-29.7c-1.5,0-2.6-1.2-2.6-2.6l0-6.7c0-1.5,1.2-2.6,2.6-2.6c0,0,0,0,0,0c1.5,0,2.6,1.2,2.6,2.6l0,6.7
				C61.5-30.9,60.3-29.8,58.9-29.7C58.9-29.7,58.9-29.7,58.9-29.7z"/>
		</g>
	</g>
	<g id="Ultralight-S" transform="matrix(1 0 0 1 515.649 696)">
		<g>
			<path d="M39.6,5.5c-8.6,0-16.4-2.9-22.8-8.6c-4.7-4.2-8.5-9.7-11-16.1c-2.3-6-3.4-12.4-3.2-18.5c0.5-10.4,4.3-20,10.9-26.9
				C17-68.3,21-71.1,25.5-73c4.7-2,9.9-2.9,15.3-2.8c1.9,0.1,3.4,1.6,3.4,3.5c-0.1,1.9-1.6,3.4-3.5,3.4C31.9-69.1,24.3-66,18.6-60
				c-5.5,5.8-8.7,13.7-9.1,22.5c-0.2,5.2,0.7,10.6,2.7,15.7c2.1,5.4,5.3,10,9.1,13.5c3,2.7,6.5,4.6,10.3,5.7
				c4.2,1.2,8.7,1.4,13.5,0.6c12.1-2,21-6.1,26.3-12.3c2.5-2.9,4.2-6.3,5.2-10.1c1-3.8,1.3-8.2,0.8-13.1
				c-0.8-8.3-4.3-14.2-10.6-17.8c-4.9-2.9-11.7-4.5-20.3-4.7c-1.9-0.1-3.4-1.6-3.4-3.5c0.1-1.9,1.6-3.4,3.5-3.4
				c9.8,0.3,17.5,2.1,23.6,5.7c8.2,4.8,12.9,12.6,13.9,23.1c1.2,11.6-1.4,21.1-7.6,28.3C70.3-2.3,60,2.6,46.3,4.9
				C44,5.3,41.8,5.5,39.6,5.5z"/>
		</g>
		<g>
			<path d="M17-40.8c-0.9,0-1.8-0.6-2.2-1.5c-0.4-1.2,0.1-2.5,1.3-3L31.4-51c1.2-0.5,2.5,0.1,3,1.3c0.4,1.2-0.1,2.5-1.3,3L17.8-41
				C17.6-40.9,17.3-40.8,17-40.8z"/>
		</g>
		<g>
			<path d="M69-40.8c-0.2,0-0.5,0-0.7-0.1l-15-4.8c-1.2-0.4-1.9-1.7-1.5-2.9c0.4-1.2,1.7-1.9,2.9-1.5l15,4.8
				c1.2,0.4,1.9,1.7,1.5,2.9C70.9-41.4,70-40.8,69-40.8z"/>
		</g>
		<g>
			<path d="M44.5-9.6c-3.9,0-8.5-1.1-12.5-2.9c-2.6-1.2-6.9-3.6-7.5-6.8c-0.2-1.2,0.6-2.4,1.9-2.7c1.2-0.2,2.4,0.6,2.7,1.8
				c0.3,0.6,2.3,2.4,6,3.9c3.9,1.6,8.1,2.3,11.4,1.9c5.1-0.6,7.9-3.7,8.6-9.2c0.2-1.3,1.3-2.2,2.6-2c1.3,0.2,2.2,1.3,2,2.6
				c-0.6,4.5-2.3,7.9-5.2,10.2c-2.5,2-5.6,3-9.4,3.1C44.9-9.6,44.7-9.6,44.5-9.6z"/>
		</g>
		<g>
			<path d="M27.7-29.8c-1.3,0-2.3-1-2.3-2.3v-6.2c0-1.3,1-2.3,2.3-2.3c1.3,0,2.3,1,2.3,2.3v6.2C30-30.8,29-29.8,27.7-29.8z"/>
		</g>
		<g>
			<path d="M55.2-30.5c-1.3,0-2.3-1-2.3-2.3l0-5.9c0-1.3,1-2.3,2.3-2.3c0,0,0,0,0,0c1.3,0,2.3,1,2.3,2.3l0,5.9
				C57.5-31.5,56.5-30.5,55.2-30.5C55.2-30.5,55.2-30.5,55.2-30.5z"/>
		</g>
	</g>
</g>
</svg>
