<?xml version="1.0" encoding="utf-8"?>
<!-- Generator: Adobe Illustrator 27.2.0, SVG Export Plug-In . SVG Version: 6.00 Build 0)  -->
<svg version="1.1" id="레이어_1" xmlns="http://www.w3.org/2000/svg" xmlns:xlink="http://www.w3.org/1999/xlink" x="0px"
	 y="0px" viewBox="0 0 3300 2200" style="enable-background:new 0 0 3300 2200;" xml:space="preserve">
<style type="text/css">
	.st0{fill:#FFFFFF;}
	.st1{fill:none;stroke:#000000;stroke-width:0.5;}
	.st2{font-family:'Helvetica-Bold';}
	.st3{font-size:13px;}
	.st4{font-family:'Helvetica';}
	.st5{fill:none;stroke:#00AEEF;stroke-width:0.5;}
	.st6{fill:#27AAE1;}
	.st7{fill:none;stroke:#27AAE1;stroke-width:0.5;}
</style>
<g id="Notes">
	<rect id="artboard" class="st0" width="3300" height="2200"/>
	<line class="st1" x1="263" y1="292" x2="3036" y2="292"/>
	<text transform="matrix(1 0 0 1 263 322)" class="st2 st3">Weight/Scale Variations</text>
	<text transform="matrix(1 0 0 1 534.0633 322)" class="st4 st3">Ultralight</text>
	<text transform="matrix(1 0 0 1 843.7775 322)" class="st4 st3">Thin</text>
	<text transform="matrix(1 0 0 1 1139.035 322)" class="st4 st3">Light</text>
	<text transform="matrix(1 0 0 1 1427.0773 322)" class="st4 st3">Regular</text>
	<text transform="matrix(1 0 0 1 1723.4419 322)" class="st4 st3">Medium</text>
	<text transform="matrix(1 0 0 1 2016.1719 322)" class="st4 st3">Semibold</text>
	<text transform="matrix(1 0 0 1 2326.9705 322)" class="st4 st3">Bold</text>
	<text transform="matrix(1 0 0 1 2618.2659 322)" class="st4 st3">Heavy</text>
	<text transform="matrix(1 0 0 1 2917.5054 322)" class="st4 st3">Black</text>
	<line class="st1" x1="263" y1="1903" x2="3036" y2="1903"/>
	<g transform="matrix(1 0 0 1 263 1933)">
		<path d="M9.2,0.8c4.3,0,7.9-3.6,7.9-7.9c0-4.3-3.6-7.9-7.9-7.9c-4.3,0-7.9,3.6-7.9,7.9C1.4-2.7,5,0.8,9.2,0.8z M9.2-0.7
			c-3.5,0-6.4-2.8-6.4-6.4c0-3.6,2.8-6.4,6.4-6.4c3.6,0,6.4,2.8,6.4,6.4C15.6-3.5,12.8-0.7,9.2-0.7z M5.7-7.1c0,0.4,0.3,0.7,0.8,0.7
			h2.1v2.1c0,0.4,0.3,0.7,0.7,0.7c0.4,0,0.7-0.3,0.7-0.7v-2.1h2.1c0.4,0,0.7-0.3,0.7-0.7c0-0.4-0.3-0.7-0.7-0.7H10v-2.1
			c0-0.4-0.3-0.8-0.7-0.8c-0.4,0-0.7,0.3-0.7,0.8v2.1H6.4C6-7.8,5.7-7.5,5.7-7.1z"/>
	</g>
	<g transform="matrix(1 0 0 1 281.867 1933)">
		<path d="M11.7,2.9c5.4,0,10-4.5,10-10c0-5.4-4.5-10-10-10c-5.4,0-10,4.5-10,10C1.7-1.6,6.3,2.9,11.7,2.9z M11.7,1.2
			c-4.6,0-8.3-3.7-8.3-8.3c0-4.6,3.7-8.3,8.3-8.3c4.6,0,8.3,3.7,8.3,8.3C20-2.4,16.3,1.2,11.7,1.2z M7.2-7.1c0,0.5,0.3,0.8,0.8,0.8
			h2.9v2.9c0,0.5,0.3,0.8,0.8,0.8c0.5,0,0.8-0.3,0.8-0.8v-2.9h2.9c0.5,0,0.8-0.3,0.8-0.8c0-0.5-0.3-0.8-0.8-0.8h-2.9v-2.9
			c0-0.5-0.3-0.8-0.8-0.8c-0.5,0-0.8,0.3-0.8,0.8v2.9H8C7.5-7.9,7.2-7.5,7.2-7.1z"/>
	</g>
	<g transform="matrix(1 0 0 1 305.646 1933)">
		<path d="M15,5.7c7,0,12.7-5.8,12.7-12.7c0-7-5.8-12.7-12.7-12.7C8-19.8,2.3-14,2.3-7.1C2.3-0.1,8,5.7,15,5.7z M15,3.8
			C8.9,3.8,4.1-1,4.1-7.1c0-6,4.8-10.9,10.9-10.9c6,0,10.9,4.9,10.9,10.9C25.9-1,21,3.8,15,3.8z M9.2-7.1c0,0.5,0.4,0.9,0.9,0.9h3.9
			v4c0,0.5,0.4,0.9,0.9,0.9c0.5,0,0.9-0.4,0.9-0.9v-4h4c0.5,0,0.9-0.4,0.9-0.9c0-0.5-0.4-0.9-0.9-0.9h-4v-3.9c0-0.5-0.4-0.9-0.9-0.9
			c-0.5,0-0.9,0.4-0.9,0.9V-8h-3.9C9.6-8,9.2-7.6,9.2-7.1z"/>
	</g>
	<text transform="matrix(1 0 0 1 263 1953)" class="st2 st3">Design Variations</text>
	<text transform="matrix(1 0 0 1 263 1971)" class="st4 st3">Symbols are supported in up to nine weights and three scales.</text>
	<text transform="matrix(1 0 0 1 263 1989)" class="st4 st3">For optimal layout with text and other symbols, vertically align</text>
	<text transform="matrix(1 0 0 1 263 2007)" class="st4 st3">symbols with the adjacent text.</text>
	<line class="st5" x1="776" y1="1919" x2="776" y2="1933"/>
	<g transform="matrix(1 0 0 1 776 1933)">
		<path d="M3.3,0.2c0.5,0,0.8-0.2,1-0.7L5.5-4h5.8l1.3,3.4C12.7,0,13,0.2,13.5,0.2c0.5,0,0.8-0.3,0.8-0.8c0-0.2,0-0.3-0.1-0.5
			L9.7-13.4C9.4-14,9-14.3,8.4-14.3c-0.6,0-1,0.3-1.2,0.9L2.6-1.2C2.5-1,2.5-0.8,2.5-0.6C2.5-0.1,2.8,0.2,3.3,0.2z M6-5.5l2.4-6.6h0
			l2.4,6.6H6z"/>
	</g>
	<line class="st5" x1="793.2" y1="1919" x2="793.2" y2="1933"/>
	<text transform="matrix(1 0 0 1 776 1953)" class="st2 st3">Margins</text>
	<text transform="matrix(1 0 0 1 776 1971)" class="st4 st3">Leading and trailing margins on the left and right side of each symbol</text>
	<text transform="matrix(1 0 0 1 776 1989)" class="st4 st3">can be adjusted by modifying the x-location of the margin guidelines.</text>
	<text transform="matrix(1 0 0 1 776 2007)" class="st4 st3">Modifications are automatically applied proportionally to all</text>
	<text transform="matrix(1 0 0 1 776 2025)" class="st4 st3">scales and weights.</text>
	<g transform="matrix(1 0 0 1 1289 1933)">
		<path d="M2.8,1.9l1.7,1.7c0.9,0.9,1.8,0.8,2.8-0.2L18-8.4l-1-1L6.4,2.3c-0.4,0.4-0.7,0.5-1.2,0L4.1,1.1C3.6,0.7,3.7,0.3,4.1,0
			l11.5-10.8l-1-1L3-0.9C2.1,0,2,1,2.8,1.9z M9.3-16.3c-0.4,0.4-0.4,1-0.2,1.4c0.2,0.4,0.7,0.6,1.3,0.4c1.5-0.3,3-0.4,4.4,0.5
			l-0.6,1.5c-0.3,0.8-0.2,1.4,0.4,2l2.3,2.3c0.5,0.5,0.9,0.5,1.5,0.4L19.4-8l0.7,0.7l0,0.6c0,0.5,0.1,0.9,0.6,1.4l0.8,0.7
			c0.5,0.5,1.1,0.5,1.6,0l2.9-2.9c0.5-0.5,0.4-1.1,0-1.5L25-9.9c-0.5-0.5-0.8-0.6-1.3-0.6l-0.6,0l-0.6-0.6l0.2-1.1
			c0.1-0.6,0-1-0.6-1.6L19.9-16C16.6-19.3,12.1-19.2,9.3-16.3z M10.8-16c2.4-1.8,5.7-1.5,7.9,0.8l2.4,2.4c0.2,0.2,0.3,0.4,0.2,0.8
			L21-10.5l1.5,1.5l1-0.1c0.3,0,0.3,0,0.5,0.2l0.6,0.6l-2.4,2.4l-0.6-0.6c-0.2-0.2-0.2-0.3-0.2-0.5l0.1-1L20-9.5l-1.5,0.3
			c-0.3,0.1-0.5,0-0.7-0.2l-2-2c-0.3-0.2-0.3-0.4-0.1-0.8l0.9-2.1c-1.6-1.5-3.6-2.1-5.6-1.5C10.7-15.7,10.6-15.8,10.8-16z"/>
	</g>
	<text transform="matrix(1 0 0 1 1289 1953)" class="st2 st3">Exporting</text>
	<text transform="matrix(1 0 0 1 1289 1971)" class="st4 st3">Symbols should be outlined when exporting to ensure the</text>
	<text transform="matrix(1 0 0 1 1289 1989)" class="st4 st3">design is preserved when submitting to Xcode.</text>
	<text id="template-version" transform="matrix(1 0 0 1 2952.4141 1933)" class="st4 st3">Template v.4.0</text>
	<text transform="matrix(1 0 0 1 2865.4575 1951)" class="st4 st3">Requires Xcode 14 or greater</text>
	<text id="descriptive-name" transform="matrix(1 0 0 1 2865.4956 1969)" class="st4 st3">Generated from custom.circle</text>
	<text transform="matrix(1 0 0 1 2912.4111 1987)" class="st4 st3">Typeset at 100 points</text>
	<text transform="matrix(1 0 0 1 263 726)" class="st4 st3">Small</text>
	<text transform="matrix(1 0 0 1 263 1156)" class="st4 st3">Medium</text>
	<text transform="matrix(1 0 0 1 263 1586)" class="st4 st3">Large</text>
</g>
<g id="Guides">
	<g id="H-reference" transform="matrix(1 0 0 1 339 696)">
		<path class="st6" d="M1,0h2.6l25.7-67.1H30v-3.3h-1.9L1,0z M11.7-24.5H47l-0.8-2.2H12.4L11.7-24.5z M55.1,0h2.6L30.6-70.5h-1.2
			v3.3L55.1,0z"/>
	</g>
	<line id="Baseline-S" class="st7" x1="263" y1="696" x2="3036" y2="696"/>
	<line id="Capline-S" class="st7" x1="263" y1="625.5" x2="3036" y2="625.5"/>
	<g id="H-reference_00000173881465109020373290000008360708963244872839_" transform="matrix(1 0 0 1 339 1126)">
		<path class="st6" d="M1,0h2.6l25.7-67.1H30v-3.3h-1.9L1,0z M11.7-24.5H47l-0.8-2.2H12.4L11.7-24.5z M55.1,0h2.6L30.6-70.5h-1.2
			v3.3L55.1,0z"/>
	</g>
	<line id="Baseline-M" class="st7" x1="263" y1="1126" x2="3036" y2="1126"/>
	<line id="Capline-M" class="st7" x1="263" y1="1055.5" x2="3036" y2="1055.5"/>
	<g id="H-reference_00000129890311082956086700000001731093820144308412_" transform="matrix(1 0 0 1 339 1556)">
		<path class="st6" d="M1,0h2.6l25.7-67.1H30v-3.3h-1.9L1,0z M11.7-24.5H47l-0.8-2.2H12.4L11.7-24.5z M55.1,0h2.6L30.6-70.5h-1.2
			v3.3L55.1,0z"/>
	</g>
	<line id="Baseline-L" class="st7" x1="263" y1="1556" x2="3036" y2="1556"/>
	<line id="Capline-L" class="st7" x1="263" y1="1485.5" x2="3036" y2="1485.5"/>
	<line id="left-margin-Ultralight-S" class="st5" x1="515.6" y1="600.8" x2="515.6" y2="720.1"/>
	<line id="right-margin-Ultralight-S" class="st5" x1="603.8" y1="600.8" x2="603.8" y2="720.1"/>
	<line id="left-margin-Regular-S" class="st5" x1="1403.6" y1="600.8" x2="1403.6" y2="720.1"/>
	<line id="right-margin-Regular-S" class="st5" x1="1496.1" y1="600.8" x2="1496.1" y2="720.1"/>
	<line id="left-margin-Black-S" class="st5" x1="2884.6" y1="600.8" x2="2884.6" y2="720.1"/>
	<line id="right-margin-Black-S" class="st5" x1="2982.2" y1="600.8" x2="2982.2" y2="720.1"/>
</g>
<g id="Symbols">
	<g id="Black-S" transform="matrix(1 0 0 1 2884.57 696)">
		<g>
			<path d="M48.1-2.5c-9.6,0-19-0.5-26.4-1.5c-4.9-0.7-8.9-1.5-12-2.5c-4.2-1.4-6.8-3.1-8.2-5.3c-2.2-3.7-1.9-8,0.9-12.7
				c2-3.4,5-6.5,7.9-9.6c1.7-1.8,3.4-3.6,4.6-5.1c1-1.3,1.4-2.1,1.5-2.4c-1-1.3-4.6-2.1-7.6-2.7c-5.5-1.2-12.2-2.7-15.1-8.7
				c-0.8-1.8-0.8-3.7,0-5.5c1.6-3.5,6.3-6.5,15.6-10c6.8-2.5,14.8-4.8,21.3-6.6c3.4-0.9,6.3-1.8,8.2-2.4c3.7-1.2,4.4-2.3,5.3-3.5
				c1-1.4,2.3-3.2,5.6-4.2c4.1-1.2,7.8-0.4,11,0.3c1.9,0.4,3.8,0.8,5.6,0.8c1.2,0,3.3-0.7,5-1.3c0.9-0.3,1.8-0.6,2.7-0.9
				c3.2-0.9,6.3-0.9,9.1,0.1c2.7,1,4.8,2.8,5.9,5c1.5,3.2,0.6,6.8-2.4,8.9c-0.4,0.2-0.8,0.6-1.5,1c-2.9,1.9-9.1,6-14.3,10.5
				c-5.5,4.8-8.7,9.1-8.6,11.6c0,0.4,0.1,1.4,2.4,2.7c6.9,3.8,8.9,11.6,10.1,16.3c0.1,0.5,0.3,1.1,0.4,1.6c6.1,0.1,8.5,0.4,10,1.9
				c1.5,1.5,3,4.4,1.1,9.3c-0.9,2.4-2.4,4.9-3.8,7.1c-0.5,0.9-1.1,1.8-1.5,2.5c-1.3,2.3-4.2,3.4-11.2,4.3c-4.7,0.6-11.1,1-17.9,1.1
				C50.4-2.5,49.3-2.5,48.1-2.5z M8.3-16c0.1,0.1,1.7,1.9,10.4,3.4c5.8,1,13.4,1.7,21.9,2c7.7,0.2,15.6,0.1,22.2-0.4
				c6.7-0.5,10.1-1.2,11.3-1.6c0.4-0.6,0.8-1.3,1.2-2c1-1.6,2-3.3,2.7-4.7c0.3-0.6,0.5-1,0.6-1.4c-1.6-0.1-3.6-0.1-4.5-0.1
				c-0.7,0-1.3,0-1.6,0c-1.2-0.1-3.4-0.6-4.6-3.8c-0.4-1-0.7-2.3-1.1-3.7c-1-3.9-2.4-9.2-6.3-11.4c-5.1-2.9-6.3-6.7-6.4-9.4
				c-0.2-5.2,3.5-11.1,11.3-17.9c5.7-4.9,12.1-9.2,15.2-11.2c0.2-0.1,0.4-0.3,0.6-0.4c-0.8-0.5-2.5-1.1-5-0.3
				c-0.7,0.2-1.5,0.5-2.3,0.8c-2.4,0.8-5.1,1.7-7.6,1.7c-2.7,0-5.1-0.5-7.2-1c-2.8-0.6-5-1.1-7.1-0.4c-0.6,0.2-0.6,0.2-1.3,1.1
				c-1.6,2.2-3.6,4.6-9.3,6.5c-2.1,0.7-5,1.5-8.5,2.5c-6.2,1.7-13.9,3.9-20.4,6.3C9-60,6.3-58.8,4.2-57.7c-1.6,0.9-2.4,1.5-2.9,1.9
				c1.6,2,5.4,2.8,9.2,3.7c5,1.1,10.7,2.4,13.1,7.2c1.3,2.7,0.8,5.8-1.6,9.3c-1.5,2.3-3.7,4.6-6,7c-2.6,2.8-5.3,5.6-6.9,8.2
				C7.4-17.5,8-16.4,8.3-16z M74.7-12.7C74.7-12.7,74.7-12.7,74.7-12.7S74.7-12.7,74.7-12.7z M82-79C82-79,82-79,82-79z"/>
		</g>
		<g>
			<path d="M4.2,16c-1.1,0-2-0.1-2.8-0.3c-3.1-0.7-4.2-2.5-4.5-3.9c-0.4-1.5-0.1-3.9,3.8-6.5c2.5-1.7,6.2-3.3,10.6-4.6
				c0.4-0.1,3.2-1,6.2-1.4c2-0.3,3.7-0.4,5.1-0.2c3,0.4,4.3,1.8,4.8,2.9c0.9,1.9,1,3.8,0.1,5.5c-1.1,2.2-3.5,3.9-7.4,5.3
				c-2.6,1-5.9,1.8-9.7,2.4C7.9,15.8,5.9,16,4.2,16z M2.5,10.5c0.8,0.2,2.8,0.3,7-0.4c8.7-1.5,12.6-3.6,13.3-4.9
				c0.1-0.1,0.1-0.3,0-0.6c-0.4-0.2-1.9-0.5-5.2,0.1C15,5,12.8,5.7,12.8,5.7l-0.1,0C6.5,7.5,3.5,9.5,2.5,10.5z"/>
		</g>
		<g>
			<path d="M79.6-35.3c-2,0-4.1-0.5-4.6-2.7c-0.1-0.6-0.5-2.1,0.2-3.8c0.8-1.8,2.6-3.1,5.3-3.9l0,0c0.1,0,1.9-0.5,4-0.8
				c2.2-0.3,5.3-0.4,6.4,1.8c0.7,1.4,0.7,3,0,4.4c-1.1,2.2-4.1,4-7.8,4.6C82.1-35.5,80.9-35.3,79.6-35.3z M78.7-39.4
				c0.4,0.1,1.4,0.1,3.6-0.2c2-0.3,4.4-1.3,5-2.5c0.1-0.2,0.1-0.3,0.1-0.5c-0.9-0.2-3.4,0.1-5.9,0.8c-1.5,0.4-2.5,1-2.7,1.7
				C78.6-39.9,78.6-39.6,78.7-39.4z"/>
		</g>
		<g>
			<path d="M97.1-30c-3.3,0-4.8-2.4-5.2-3.9c-0.1-0.4-0.4-1.6,0.2-3c0.6-1.4,2-2.5,4.1-3.1l0.2-0.1l0.2,0c0.1,0,1.3-0.1,2.7,0.1
				c1.5,0.2,3.7,0.5,4.5,2.2c0.6,1.3,0.6,2.7,0,4c-0.9,1.8-2.9,3.1-5.4,3.6C97.9-30,97.5-30,97.1-30z M97-36
				c-0.9,0.3-1.2,0.6-1.3,0.7c0,0.1,0,0.3,0,0.4c0,0.1,0.2,0.4,0.4,0.6c0.3,0.3,0.8,0.4,1.5,0.2c1.4-0.2,2.3-0.9,2.5-1.4
				c0-0.1,0.1-0.2,0.1-0.2C99.7-35.9,98.3-36,97-36z"/>
		</g>
	</g>
	<g id="Regular-S" transform="matrix(1 0 0 1 1403.58 696)">
		<g>
			<path d="M46.3-6.8c-8.3,0-16.5-0.5-22.9-1.3c-4.2-0.6-7.8-1.3-10.5-2.2C9.2-11.5,7-13,5.8-15c-1.9-3.2-1.7-6.9,0.8-11
				c1.8-2.9,4.4-5.7,6.9-8.3c1.5-1.6,2.9-3.1,4-4.4c0.9-1.2,1.2-1.8,1.3-2.1c-0.9-1.1-4-1.8-6.6-2.4c-4.7-1-10.6-2.3-13.1-7.6
				c-0.7-1.5-0.7-3.2,0-4.8c1.4-3.1,5.4-5.7,13.5-8.7c5.9-2.2,12.9-4.2,18.5-5.8c2.9-0.8,5.4-1.5,7.1-2.1c3.2-1.1,3.8-2,4.6-3
				c0.8-1.2,2-2.8,4.8-3.7c3.5-1,6.7-0.4,9.6,0.2c1.7,0.4,3.3,0.7,4.9,0.7c1,0,2.9-0.6,4.3-1.1c0.8-0.3,1.6-0.5,2.3-0.8
				c2.8-0.8,5.5-0.8,7.9,0.1c2.3,0.8,4.2,2.4,5.1,4.3c1.3,2.8,0.5,5.9-2.1,7.7c-0.3,0.2-0.7,0.5-1.3,0.9c-2.6,1.7-7.9,5.2-12.5,9.2
				c-4.8,4.1-7.6,7.9-7.5,10.1c0,0.3,0,1.3,2.1,2.4c6,3.3,7.7,10.1,8.8,14.2c0.1,0.4,0.2,0.9,0.4,1.4c5.3,0.1,7.4,0.3,8.7,1.7
				c1.3,1.3,2.6,3.8,0.9,8c-0.8,2.1-2.1,4.3-3.3,6.2c-0.5,0.8-0.9,1.5-1.3,2.2c-1.1,2-3.7,3-9.7,3.7c-4.1,0.5-9.6,0.8-15.6,0.9
				C48.4-6.8,47.3-6.8,46.3-6.8z M11.7-18.5c0.1,0.1,1.5,1.7,9.1,3c5.1,0.9,11.6,1.5,19.1,1.7c6.7,0.2,13.6,0.1,19.3-0.3
				c5.8-0.4,8.8-1,9.9-1.4c0.3-0.6,0.7-1.1,1-1.7c0.8-1.4,1.7-2.8,2.3-4.1c0.2-0.5,0.4-0.9,0.5-1.2c-1.4-0.1-3.2-0.1-3.9-0.1
				c-0.6,0-1.1,0-1.4,0c-1,0-2.9-0.5-4-3.3c-0.4-0.9-0.6-2-1-3.2c-0.9-3.4-2.1-8-5.5-9.9c-4.5-2.5-5.5-5.8-5.6-8.2
				c-0.2-4.5,3.1-9.6,9.9-15.5c4.9-4.3,10.5-8,13.2-9.7c0.2-0.1,0.3-0.2,0.5-0.3c-0.7-0.5-2.2-0.9-4.4-0.3c-0.6,0.2-1.3,0.4-2,0.7
				c-2.1,0.7-4.4,1.5-6.6,1.5c-2.3,0-4.4-0.4-6.3-0.8c-2.4-0.5-4.3-0.9-6.2-0.4C49-72,49-72,48.5-71.2c-1.4,2-3.1,4-8.1,5.6
				C38.6-65,36-64.2,33-63.4c-5.4,1.5-12.1,3.4-17.7,5.5c-3,1.1-5.4,2.1-7.1,3.1c-1.4,0.8-2.1,1.3-2.5,1.7c1.4,1.7,4.7,2.5,8,3.2
				c4.4,1,9.3,2.1,11.4,6.3c1.2,2.3,0.7,5-1.3,8c-1.3,2-3.2,4-5.3,6.1c-2.3,2.4-4.6,4.9-6,7.1C11-19.9,11.5-18.9,11.7-18.5z
				 M69.4-15.7C69.4-15.7,69.4-15.7,69.4-15.7S69.4-15.7,69.4-15.7z M75.8-73.3C75.8-73.3,75.8-73.3,75.8-73.3z"/>
		</g>
		<g>
			<path d="M8.1,9.2C7.2,9.2,6.4,9.2,5.7,9C3,8.5,2.1,6.8,1.7,5.6C1.4,4.3,1.7,2.2,5-0.1c2.2-1.5,5.4-2.9,9.2-4
				c0.3-0.1,2.8-0.8,5.4-1.2c1.7-0.3,3.2-0.3,4.5-0.2c2.6,0.3,3.7,1.6,4.2,2.6c0.8,1.6,0.8,3.3,0.1,4.8c-0.9,1.9-3,3.4-6.4,4.6
				c-2.3,0.8-5.1,1.5-8.4,2.1C11.4,9.1,9.6,9.2,8.1,9.2z M6.6,4.5c0.7,0.2,2.4,0.3,6.1-0.4C20.3,2.8,23.7,1,24.3-0.1
				c0.1-0.1,0.1-0.2,0-0.6c-0.4-0.2-1.7-0.4-4.5,0.1c-2.2,0.4-4.1,1-4.1,1l-0.1,0C10.1,1.9,7.6,3.6,6.6,4.5z"/>
		</g>
		<g>
			<path d="M73.7-35.4c-1.8,0-3.6-0.5-4-2.4c-0.1-0.5-0.5-1.8,0.2-3.3c0.7-1.6,2.2-2.7,4.6-3.4l0,0c0.1,0,1.7-0.5,3.4-0.7
				c1.9-0.3,4.6-0.4,5.6,1.6c0.6,1.2,0.6,2.6,0,3.8c-1,2-3.5,3.5-6.8,4C75.9-35.5,74.8-35.4,73.7-35.4z M72.9-38.9
				c0.3,0.1,1.2,0.1,3.2-0.2c1.8-0.3,3.8-1.2,4.3-2.2c0.1-0.1,0.1-0.3,0.1-0.5c-0.8-0.2-2.9,0.1-5.1,0.7c-1.3,0.4-2.1,0.9-2.4,1.4
				C72.9-39.4,72.9-39.1,72.9-38.9z"/>
		</g>
		<g>
			<path d="M88.9-30.7c-2.8,0-4.2-2.1-4.5-3.4c-0.1-0.4-0.4-1.4,0.1-2.6c0.5-1.2,1.7-2.1,3.5-2.7l0.2-0.1l0.2,0c0,0,1.1,0,2.3,0.1
				c1.3,0.1,3.2,0.5,3.9,1.9c0.6,1.1,0.6,2.4,0,3.5c-0.8,1.6-2.5,2.7-4.7,3.1C89.6-30.7,89.3-30.7,88.9-30.7z M88.8-35.9
				c-0.8,0.2-1.1,0.5-1.1,0.6c0,0.1,0,0.3,0,0.4c0,0.1,0.1,0.3,0.4,0.5c0.3,0.2,0.7,0.3,1.3,0.2c1.2-0.2,2-0.8,2.2-1.3
				c0-0.1,0.1-0.1,0.1-0.2C91.2-35.8,89.9-36,88.8-35.9z"/>
		</g>
	</g>
	<g id="Ultralight-S" transform="matrix(1 0 0 1 515.649 696)">
		<g>
			<path d="M44.3-10.6c-7.2,0-14.4-0.4-20-1.2c-3.7-0.5-6.8-1.1-9.1-1.9c-3.2-1-5.2-2.3-6.2-4c-1.7-2.8-1.4-6,0.7-9.6
				c1.5-2.5,3.8-4.9,6-7.2c1.3-1.4,2.6-2.7,3.5-3.8c0.8-1,1.1-1.6,1.1-1.8c-0.8-1-3.5-1.6-5.7-2.1c-4.1-0.9-9.3-2-11.4-6.6
				c-0.6-1.3-0.6-2.8,0-4.2C4.4-55.7,8-57.9,15-60.5c5.2-1.9,11.2-3.6,16.1-5c2.5-0.7,4.7-1.3,6.2-1.8c2.8-0.9,3.3-1.7,4-2.6
				c0.7-1,1.7-2.5,4.2-3.2c3.1-0.9,5.9-0.3,8.3,0.2c1.5,0.3,2.8,0.6,4.2,0.6c0.9,0,2.5-0.6,3.8-1c0.7-0.2,1.4-0.5,2-0.7
				c2.4-0.7,4.8-0.7,6.9,0.1c2,0.7,3.7,2.1,4.5,3.8c1.2,2.4,0.4,5.1-1.8,6.7c-0.3,0.2-0.6,0.4-1.1,0.8c-2.2,1.5-6.9,4.5-10.8,8
				c-4.1,3.6-6.6,6.9-6.5,8.8c0,0.3,0,1.1,1.8,2.1c5.2,2.9,6.7,8.8,7.6,12.3c0.1,0.4,0.2,0.8,0.3,1.2c4.6,0.1,6.4,0.3,7.6,1.4
				c1.2,1.1,2.2,3.3,0.8,7c-0.7,1.8-1.9,3.7-2.9,5.4c-0.4,0.7-0.8,1.3-1.1,1.9c-1,1.7-3.2,2.6-8.5,3.2c-3.6,0.4-8.4,0.7-13.5,0.8
				C46.1-10.6,45.2-10.6,44.3-10.6z M14.2-20.8c0.1,0.1,1.3,1.4,7.9,2.6c4.4,0.8,10.1,1.3,16.6,1.5c5.8,0.2,11.8,0.1,16.8-0.3
				c5.1-0.4,7.6-0.9,8.6-1.2c0.3-0.5,0.6-1,0.9-1.5c0.7-1.2,1.5-2.5,2-3.6c0.2-0.4,0.3-0.8,0.4-1.1c-1.2-0.1-2.7-0.1-3.4-0.1
				c-0.6,0-1,0-1.2,0c-0.9,0-2.5-0.5-3.5-2.8C59-28,58.7-29,58.4-30c-0.8-2.9-1.8-7-4.8-8.6c-3.9-2.2-4.8-5.1-4.9-7.1
				c-0.1-3.9,2.7-8.4,8.6-13.5c4.3-3.7,9.2-6.9,11.5-8.5c0.1-0.1,0.3-0.2,0.4-0.3c-0.6-0.4-1.9-0.8-3.8-0.3
				c-0.5,0.1-1.1,0.4-1.8,0.6c-1.8,0.6-3.8,1.3-5.7,1.3c-2,0-3.9-0.4-5.5-0.7c-2.1-0.4-3.8-0.8-5.4-0.3c-0.5,0.1-0.5,0.2-1,0.9
				c-1.2,1.7-2.7,3.5-7,4.9c-1.6,0.5-3.8,1.2-6.4,1.9c-4.7,1.3-10.5,3-15.4,4.8c-2.6,0.9-4.7,1.8-6.2,2.7C10-51.6,9.3-51.2,9-50.8
				c1.2,1.5,4.1,2.2,6.9,2.8c3.8,0.8,8.1,1.8,9.9,5.4c1,2,0.6,4.4-1.2,7c-1.2,1.7-2.8,3.4-4.6,5.3c-2,2.1-4,4.2-5.2,6.2
				C13.6-21.9,14-21.1,14.2-20.8z M64.4-18.3C64.4-18.3,64.4-18.3,64.4-18.3S64.4-18.3,64.4-18.3z M69.9-68.4
				C69.9-68.4,69.9-68.4,69.9-68.4z"/>
		</g>
		<g>
			<path d="M11.1,3.4c-0.8,0-1.5-0.1-2.1-0.2c-2.3-0.5-3.1-1.9-3.4-3c-0.3-1.2,0-2.9,2.9-4.9c1.9-1.3,4.7-2.5,8-3.5
				c0.3-0.1,2.4-0.7,4.7-1.1c1.5-0.2,2.8-0.3,3.9-0.1c2.2,0.3,3.2,1.4,3.6,2.2c0.7,1.4,0.7,2.9,0.1,4.2c-0.8,1.6-2.6,2.9-5.6,4
				c-2,0.7-4.4,1.3-7.3,1.9C13.9,3.2,12.4,3.4,11.1,3.4z M9.8-0.7c0.6,0.1,2.1,0.2,5.3-0.3c6.6-1.1,9.5-2.7,10-3.7
				c0-0.1,0.1-0.2,0-0.5c-0.3-0.2-1.4-0.4-3.9,0.1c-1.9,0.3-3.6,0.9-3.6,0.9l-0.1,0C12.8-3,10.6-1.5,9.8-0.7z"/>
		</g>
		<g>
			<path d="M68.1-35.4c-1.5,0-3.1-0.4-3.5-2c-0.1-0.4-0.4-1.6,0.1-2.8c0.6-1.4,1.9-2.4,4-3l0,0c0.1,0,1.5-0.4,3-0.6
				c1.7-0.2,4-0.3,4.9,1.4c0.5,1.1,0.5,2.3,0,3.3c-0.9,1.7-3.1,3-5.9,3.5C70-35.5,69.1-35.4,68.1-35.4z M67.4-38.4
				c0.3,0.1,1,0.1,2.7-0.2c1.5-0.3,3.3-1,3.8-1.9c0.1-0.1,0.1-0.2,0.1-0.4c-0.7-0.1-2.6,0.1-4.4,0.6c-1.1,0.3-1.9,0.8-2.1,1.3
				C67.4-38.9,67.4-38.6,67.4-38.4z"/>
		</g>
		<g>
			<path d="M81.3-31.3c-2.5,0-3.6-1.8-3.9-2.9c-0.1-0.3-0.3-1.2,0.1-2.3c0.5-1.1,1.5-1.9,3.1-2.3l0.2,0l0.2,0c0,0,1,0,2,0.1
				c1.2,0.1,2.8,0.4,3.4,1.7c0.5,1,0.5,2.1,0,3c-0.7,1.4-2.2,2.4-4.1,2.7C82-31.4,81.6-31.3,81.3-31.3z M81.3-35.9
				c-0.7,0.2-0.9,0.5-1,0.6c0,0.1,0,0.2,0,0.3c0,0.1,0.1,0.3,0.3,0.4c0.3,0.2,0.6,0.3,1.1,0.2c1-0.2,1.7-0.7,1.9-1.1
				c0-0.1,0.1-0.1,0.1-0.2C83.3-35.8,82.2-35.9,81.3-35.9z"/>
		</g>
	</g>
</g>
</svg>
