<?xml version="1.0" encoding="utf-8"?>
<!-- Generator: Adobe Illustrator 27.2.0, SVG Export Plug-In . SVG Version: 6.00 Build 0)  -->
<svg version="1.1" id="레이어_1" xmlns="http://www.w3.org/2000/svg" xmlns:xlink="http://www.w3.org/1999/xlink" x="0px"
	 y="0px" viewBox="0 0 3300 2200" style="enable-background:new 0 0 3300 2200;" xml:space="preserve">
<style type="text/css">
	.st0{fill:#FFFFFF;}
	.st1{fill:none;stroke:#000000;stroke-width:0.5;}
	.st2{font-family:'Helvetica-Bold';}
	.st3{font-size:13px;}
	.st4{font-family:'Helvetica';}
	.st5{fill:none;stroke:#00AEEF;stroke-width:0.5;}
	.st6{fill:#27AAE1;}
	.st7{fill:none;stroke:#27AAE1;stroke-width:0.5;}
</style>
<g id="Notes">
	<rect id="artboard" class="st0" width="3300" height="2200"/>
	<line class="st1" x1="263" y1="292" x2="3036" y2="292"/>
	<text transform="matrix(1 0 0 1 263 322)" class="st2 st3">Weight/Scale Variations</text>
	<text transform="matrix(1 0 0 1 534.0633 322)" class="st4 st3">Ultralight</text>
	<text transform="matrix(1 0 0 1 843.7775 322)" class="st4 st3">Thin</text>
	<text transform="matrix(1 0 0 1 1139.035 322)" class="st4 st3">Light</text>
	<text transform="matrix(1 0 0 1 1427.0773 322)" class="st4 st3">Regular</text>
	<text transform="matrix(1 0 0 1 1723.4419 322)" class="st4 st3">Medium</text>
	<text transform="matrix(1 0 0 1 2016.1719 322)" class="st4 st3">Semibold</text>
	<text transform="matrix(1 0 0 1 2326.9705 322)" class="st4 st3">Bold</text>
	<text transform="matrix(1 0 0 1 2618.2659 322)" class="st4 st3">Heavy</text>
	<text transform="matrix(1 0 0 1 2917.5054 322)" class="st4 st3">Black</text>
	<line class="st1" x1="263" y1="1903" x2="3036" y2="1903"/>
	<g transform="matrix(1 0 0 1 263 1933)">
		<path d="M9.2,0.8c4.3,0,7.9-3.6,7.9-7.9c0-4.3-3.6-7.9-7.9-7.9c-4.3,0-7.9,3.6-7.9,7.9C1.4-2.7,5,0.8,9.2,0.8z M9.2-0.7
			c-3.5,0-6.4-2.8-6.4-6.4c0-3.6,2.8-6.4,6.4-6.4c3.6,0,6.4,2.8,6.4,6.4C15.6-3.5,12.8-0.7,9.2-0.7z M5.7-7.1c0,0.4,0.3,0.7,0.8,0.7
			h2.1v2.1c0,0.4,0.3,0.7,0.7,0.7c0.4,0,0.7-0.3,0.7-0.7v-2.1h2.1c0.4,0,0.7-0.3,0.7-0.7c0-0.4-0.3-0.7-0.7-0.7H10v-2.1
			c0-0.4-0.3-0.8-0.7-0.8c-0.4,0-0.7,0.3-0.7,0.8v2.1H6.4C6-7.8,5.7-7.5,5.7-7.1z"/>
	</g>
	<g transform="matrix(1 0 0 1 281.867 1933)">
		<path d="M11.7,2.9c5.4,0,10-4.5,10-10c0-5.4-4.5-10-10-10c-5.4,0-10,4.5-10,10C1.7-1.6,6.3,2.9,11.7,2.9z M11.7,1.2
			c-4.6,0-8.3-3.7-8.3-8.3c0-4.6,3.7-8.3,8.3-8.3c4.6,0,8.3,3.7,8.3,8.3C20-2.4,16.3,1.2,11.7,1.2z M7.2-7.1c0,0.5,0.3,0.8,0.8,0.8
			h2.9v2.9c0,0.5,0.3,0.8,0.8,0.8c0.5,0,0.8-0.3,0.8-0.8v-2.9h2.9c0.5,0,0.8-0.3,0.8-0.8c0-0.5-0.3-0.8-0.8-0.8h-2.9v-2.9
			c0-0.5-0.3-0.8-0.8-0.8c-0.5,0-0.8,0.3-0.8,0.8v2.9H8C7.5-7.9,7.2-7.5,7.2-7.1z"/>
	</g>
	<g transform="matrix(1 0 0 1 305.646 1933)">
		<path d="M15,5.7c7,0,12.7-5.8,12.7-12.7c0-7-5.8-12.7-12.7-12.7C8-19.8,2.3-14,2.3-7.1C2.3-0.1,8,5.7,15,5.7z M15,3.8
			C8.9,3.8,4.1-1,4.1-7.1c0-6,4.8-10.9,10.9-10.9c6,0,10.9,4.9,10.9,10.9C25.9-1,21,3.8,15,3.8z M9.2-7.1c0,0.5,0.4,0.9,0.9,0.9h3.9
			v4c0,0.5,0.4,0.9,0.9,0.9c0.5,0,0.9-0.4,0.9-0.9v-4h4c0.5,0,0.9-0.4,0.9-0.9c0-0.5-0.4-0.9-0.9-0.9h-4v-3.9c0-0.5-0.4-0.9-0.9-0.9
			c-0.5,0-0.9,0.4-0.9,0.9V-8h-3.9C9.6-8,9.2-7.6,9.2-7.1z"/>
	</g>
	<text transform="matrix(1 0 0 1 263 1953)" class="st2 st3">Design Variations</text>
	<text transform="matrix(1 0 0 1 263 1971)" class="st4 st3">Symbols are supported in up to nine weights and three scales.</text>
	<text transform="matrix(1 0 0 1 263 1989)" class="st4 st3">For optimal layout with text and other symbols, vertically align</text>
	<text transform="matrix(1 0 0 1 263 2007)" class="st4 st3">symbols with the adjacent text.</text>
	<line class="st5" x1="776" y1="1919" x2="776" y2="1933"/>
	<g transform="matrix(1 0 0 1 776 1933)">
		<path d="M3.3,0.2c0.5,0,0.8-0.2,1-0.7L5.5-4h5.8l1.3,3.4C12.7,0,13,0.2,13.5,0.2c0.5,0,0.8-0.3,0.8-0.8c0-0.2,0-0.3-0.1-0.5
			L9.7-13.4C9.4-14,9-14.3,8.4-14.3c-0.6,0-1,0.3-1.2,0.9L2.6-1.2C2.5-1,2.5-0.8,2.5-0.6C2.5-0.1,2.8,0.2,3.3,0.2z M6-5.5l2.4-6.6h0
			l2.4,6.6H6z"/>
	</g>
	<line class="st5" x1="793.2" y1="1919" x2="793.2" y2="1933"/>
	<text transform="matrix(1 0 0 1 776 1953)" class="st2 st3">Margins</text>
	<text transform="matrix(1 0 0 1 776 1971)" class="st4 st3">Leading and trailing margins on the left and right side of each symbol</text>
	<text transform="matrix(1 0 0 1 776 1989)" class="st4 st3">can be adjusted by modifying the x-location of the margin guidelines.</text>
	<text transform="matrix(1 0 0 1 776 2007)" class="st4 st3">Modifications are automatically applied proportionally to all</text>
	<text transform="matrix(1 0 0 1 776 2025)" class="st4 st3">scales and weights.</text>
	<g transform="matrix(1 0 0 1 1289 1933)">
		<path d="M2.8,1.9l1.7,1.7c0.9,0.9,1.8,0.8,2.8-0.2L18-8.4l-1-1L6.4,2.3c-0.4,0.4-0.7,0.5-1.2,0L4.1,1.1C3.6,0.7,3.7,0.3,4.1,0
			l11.5-10.8l-1-1L3-0.9C2.1,0,2,1,2.8,1.9z M9.3-16.3c-0.4,0.4-0.4,1-0.2,1.4c0.2,0.4,0.7,0.6,1.3,0.4c1.5-0.3,3-0.4,4.4,0.5
			l-0.6,1.5c-0.3,0.8-0.2,1.4,0.4,2l2.3,2.3c0.5,0.5,0.9,0.5,1.5,0.4L19.4-8l0.7,0.7l0,0.6c0,0.5,0.1,0.9,0.6,1.4l0.8,0.7
			c0.5,0.5,1.1,0.5,1.6,0l2.9-2.9c0.5-0.5,0.4-1.1,0-1.5L25-9.9c-0.5-0.5-0.8-0.6-1.3-0.6l-0.6,0l-0.6-0.6l0.2-1.1
			c0.1-0.6,0-1-0.6-1.6L19.9-16C16.6-19.3,12.1-19.2,9.3-16.3z M10.8-16c2.4-1.8,5.7-1.5,7.9,0.8l2.4,2.4c0.2,0.2,0.3,0.4,0.2,0.8
			L21-10.5l1.5,1.5l1-0.1c0.3,0,0.3,0,0.5,0.2l0.6,0.6l-2.4,2.4l-0.6-0.6c-0.2-0.2-0.2-0.3-0.2-0.5l0.1-1L20-9.5l-1.5,0.3
			c-0.3,0.1-0.5,0-0.7-0.2l-2-2c-0.3-0.2-0.3-0.4-0.1-0.8l0.9-2.1c-1.6-1.5-3.6-2.1-5.6-1.5C10.7-15.7,10.6-15.8,10.8-16z"/>
	</g>
	<text transform="matrix(1 0 0 1 1289 1953)" class="st2 st3">Exporting</text>
	<text transform="matrix(1 0 0 1 1289 1971)" class="st4 st3">Symbols should be outlined when exporting to ensure the</text>
	<text transform="matrix(1 0 0 1 1289 1989)" class="st4 st3">design is preserved when submitting to Xcode.</text>
	<text id="template-version" transform="matrix(1 0 0 1 2952.4141 1933)" class="st4 st3">Template v.4.0</text>
	<text transform="matrix(1 0 0 1 2865.4575 1951)" class="st4 st3">Requires Xcode 14 or greater</text>
	<text id="descriptive-name" transform="matrix(1 0 0 1 2865.4956 1969)" class="st4 st3">Generated from custom.circle</text>
	<text transform="matrix(1 0 0 1 2912.4111 1987)" class="st4 st3">Typeset at 100 points</text>
	<text transform="matrix(1 0 0 1 263 726)" class="st4 st3">Small</text>
	<text transform="matrix(1 0 0 1 263 1156)" class="st4 st3">Medium</text>
	<text transform="matrix(1 0 0 1 263 1586)" class="st4 st3">Large</text>
</g>
<g id="Guides">
	<g id="H-reference" transform="matrix(1 0 0 1 339 696)">
		<path class="st6" d="M1,0h2.6l25.7-67.1H30v-3.3h-1.9L1,0z M11.7-24.5H47l-0.8-2.2H12.4L11.7-24.5z M55.1,0h2.6L30.6-70.5h-1.2
			v3.3L55.1,0z"/>
	</g>
	<line id="Baseline-S" class="st7" x1="263" y1="696" x2="3036" y2="696"/>
	<line id="Capline-S" class="st7" x1="263" y1="625.5" x2="3036" y2="625.5"/>
	<g id="H-reference_00000152234062310148743670000013476454169860626340_" transform="matrix(1 0 0 1 339 1126)">
		<path class="st6" d="M1,0h2.6l25.7-67.1H30v-3.3h-1.9L1,0z M11.7-24.5H47l-0.8-2.2H12.4L11.7-24.5z M55.1,0h2.6L30.6-70.5h-1.2
			v3.3L55.1,0z"/>
	</g>
	<line id="Baseline-M" class="st7" x1="263" y1="1126" x2="3036" y2="1126"/>
	<line id="Capline-M" class="st7" x1="263" y1="1055.5" x2="3036" y2="1055.5"/>
	<g id="H-reference_00000121978067289981612860000017938900725566762931_" transform="matrix(1 0 0 1 339 1556)">
		<path class="st6" d="M1,0h2.6l25.7-67.1H30v-3.3h-1.9L1,0z M11.7-24.5H47l-0.8-2.2H12.4L11.7-24.5z M55.1,0h2.6L30.6-70.5h-1.2
			v3.3L55.1,0z"/>
	</g>
	<line id="Baseline-L" class="st7" x1="263" y1="1556" x2="3036" y2="1556"/>
	<line id="Capline-L" class="st7" x1="263" y1="1485.5" x2="3036" y2="1485.5"/>
	<line id="left-margin-Ultralight-S" class="st5" x1="515.6" y1="600.8" x2="515.6" y2="720.1"/>
	<line id="right-margin-Ultralight-S" class="st5" x1="603.8" y1="600.8" x2="603.8" y2="720.1"/>
	<line id="left-margin-Regular-S" class="st5" x1="1403.6" y1="600.8" x2="1403.6" y2="720.1"/>
	<line id="right-margin-Regular-S" class="st5" x1="1496.1" y1="600.8" x2="1496.1" y2="720.1"/>
	<line id="left-margin-Black-S" class="st5" x1="2884.6" y1="600.8" x2="2884.6" y2="720.1"/>
	<line id="right-margin-Black-S" class="st5" x1="2982.2" y1="600.8" x2="2982.2" y2="720.1"/>
</g>
<g id="Symbols">
	<g id="Black-S" transform="matrix(1 0 0 1 2884.57 696)">
		<g>
			<path d="M47.5-35.9c-19.6,0-36.5-4.4-43.1-11.2c-2.8-2.9-3.3-5.7-3.3-7.6c0.2-5.5,2.9-13.1,15-18.2c7.9-3.4,18.8-5.2,31.4-5.2
				c2.2,0,4,1.8,4,4c0,2.2-1.8,4-4,4c-11.5,0-21.3,1.6-28.2,4.6c-6.6,2.8-10,6.6-10.1,11.2c0,0.7,0.6,1.4,1,1.8
				c4.2,4.4,18.4,8.8,37.4,8.8c10.9,0,21.1-1.4,28.7-4.1c7.7-2.7,9.7-5.5,9.7-6.6c-0.1-0.2-1.7-2.7-12.5-4.4
				c-7.2-1.1-16.6-1.6-25.8-1.2c-2.2,0.1-4-1.6-4.1-3.8c-0.1-2.2,1.6-4,3.8-4.1c8.7-0.3,17.4,0,24.7,0.9c9.6,1.2,15.9,3.3,19.1,6.5
				c2.3,2.2,2.7,4.5,2.7,6.1c0,4.1-2.6,9.8-15.1,14.1C70.4-37.5,59.3-35.9,47.5-35.9z"/>
		</g>
		<g>
			<path d="M48,7c-8.1,0-15.7-1.7-22.5-5.1c-6.8-3.4-11.2-7.6-13.2-9.8C12.2-8,12.1-8.1,12-8.3l-6.7-10c-1.2-1.8-0.7-4.3,1.1-5.5
				c1.8-1.2,4.3-0.7,5.5,1.1l6.5,9.7c2.8,3.1,12.5,12,29.6,12c6.8,0,13.2-1.4,19.2-4.3c4-1.9,7.8-4.5,11.6-7.9l7-10.2
				c1.2-1.8,3.7-2.3,5.5-1.1c1.8,1.2,2.3,3.7,1.1,5.5L85.1-8.3c-0.2,0.3-0.4,0.5-0.6,0.7c-4.5,4.1-9,7.2-13.9,9.5
				C63.6,5.3,56,7,48,7z"/>
		</g>
		<g>
			<path d="M47.9-8.4c-0.1,0-0.3,0-0.4,0c-10.6-0.1-20.4-2.6-26.8-4.7C12.4-15.9,6.4-19,3.5-21.1c-6.4-4.5-9.4-8.8-9.3-13.3
				c0.1-3.4,2-6.5,5.7-9.2l2.3-8.3c0.6-2.1,2.8-3.3,4.9-2.8c2.1,0.6,3.3,2.8,2.8,4.9L7.1-40c-0.3,1-0.9,1.8-1.7,2.3
				c-2.1,1.3-3.3,2.6-3.3,3.5c0,1.2,1.5,3.5,5.9,6.6c2.3,1.6,7.7,4.4,15.2,6.9c5.8,1.9,14.8,4.2,24.4,4.3c9.4,0.1,18.9-2.5,25.3-4.6
				c7.4-2.5,13.5-5.5,16-7.2c1.6-1.1,3.4-2.4,4.8-3.9c1.3-1.3,1.9-2.5,1.9-3.4c0-0.6-0.3-1.2-0.9-1.9c-4.2,5.5-11.4,9.6-21.5,12.3
				c-11.1,3-22.3,3.4-25.5,3.4c-2.2,0-4-1.7-4-3.9c0-2.2,1.7-4,3.9-4c13.3-0.2,37.3-3.6,42.4-15.3c0.5-1.1,1.4-1.9,2.5-2.2
				c1.1-0.3,2.3-0.2,3.3,0.4c5.1,3.2,7.7,6.9,7.8,11.1c0.1,7-7.1,11.9-10.2,14c-3.1,2.1-9.8,5.4-17.9,8.2
				C68.6-11.2,58.3-8.4,47.9-8.4z"/>
		</g>
	</g>
	<g id="Regular-S" transform="matrix(1 0 0 1 1403.58 696)">
		<g>
			<path d="M45.2-35.8c-17.1,0-31.8-3.8-37.5-9.7c-2.4-2.5-2.9-5-2.8-6.6C5-56.9,7.4-63.5,17.9-68c6.9-3,16.3-4.5,27.3-4.5
				c1.9,0,3.5,1.5,3.5,3.5c0,1.9-1.5,3.4-3.5,3.4c-10,0-18.5,1.4-24.5,4c-5.7,2.5-8.7,5.7-8.8,9.7c0,0.6,0.5,1.2,0.9,1.6
				c3.7,3.8,16,7.6,32.5,7.6c9.5,0,18.3-1.3,24.9-3.5c6.7-2.3,8.5-4.8,8.5-5.8c-0.1-0.2-1.5-2.3-10.9-3.8c-6.2-1-14.4-1.4-22.4-1.1
				c-1.9,0.1-3.5-1.4-3.6-3.3c-0.1-1.9,1.4-3.5,3.3-3.6c7.5-0.3,15.1,0,21.5,0.8c8.4,1.1,13.8,2.9,16.6,5.6c2,1.9,2.4,3.9,2.4,5.3
				c0,3.5-2.3,8.5-13.1,12.3C65-37.2,55.4-35.8,45.2-35.8z"/>
		</g>
		<g>
			<path d="M45.6,1.4C38.5,1.4,31.9,0,26-3c-5.9-2.9-9.7-6.6-11.4-8.5c-0.1-0.1-0.2-0.3-0.3-0.4l-5.8-8.7c-1.1-1.6-0.6-3.7,1-4.8
				c1.6-1.1,3.7-0.6,4.8,1l5.7,8.5c2.5,2.7,10.9,10.4,25.7,10.4c5.9,0,11.5-1.3,16.7-3.7c3.5-1.7,6.8-3.9,10.1-6.9l6.1-8.9
				c1.1-1.6,3.2-2,4.8-0.9c1.6,1.1,2,3.2,0.9,4.8l-6.3,9.3c-0.2,0.2-0.3,0.4-0.5,0.6C73.4-7.7,69.4-5,65.2-3
				C59.2,0,52.5,1.4,45.6,1.4z"/>
		</g>
		<g>
			<path d="M45.5-12c-0.1,0-0.2,0-0.4,0c-9.2-0.1-17.8-2.3-23.3-4.1c-7.2-2.4-12.4-5.1-15-6.9c-5.5-3.9-8.2-7.7-8.1-11.6
				c0.1-3,1.7-5.7,5-8l2-7.2c0.5-1.8,2.4-2.9,4.2-2.4c1.8,0.5,2.9,2.4,2.4,4.2L10-39.4c-0.2,0.8-0.8,1.5-1.5,2
				c-1.8,1.1-2.9,2.3-2.9,3.1c0,1,1.3,3,5.1,5.7c2,1.4,6.7,3.8,13.2,6c5.1,1.7,12.9,3.7,21.2,3.8c8.2,0.1,16.5-2.2,22-4
				c6.4-2.2,11.7-4.8,13.9-6.3c1.4-1,3-2.1,4.2-3.4c1.1-1.2,1.7-2.2,1.6-3c0-0.5-0.3-1.1-0.8-1.7c-3.7,4.8-9.9,8.4-18.7,10.7
				c-9.6,2.6-19.4,2.9-22.2,3c-1.9,0-3.5-1.5-3.5-3.4c0-1.9,1.5-3.5,3.4-3.5c11.6-0.1,32.4-3.1,36.9-13.3c0.4-0.9,1.2-1.6,2.1-1.9
				c1-0.3,2-0.2,2.9,0.4c4.4,2.8,6.7,6,6.8,9.7c0.1,6.1-6.2,10.4-8.9,12.2c-2.7,1.8-8.5,4.7-15.6,7.1C63.5-14.4,54.5-12,45.5-12z"/>
		</g>
	</g>
	<g id="Ultralight-S" transform="matrix(1 0 0 1 515.649 696)">
		<g>
			<path d="M43.1-35.8c-14.8,0-27.6-3.3-32.6-8.4C8.4-46.4,8-48.6,8-50c0.1-4.1,2.2-9.9,11.3-13.8c6-2.6,14.2-3.9,23.7-3.9
				c1.7,0,3,1.3,3,3s-1.3,3-3,3c-8.7,0-16.1,1.2-21.3,3.4c-5,2.1-7.6,5-7.7,8.5c0,0.5,0.5,1.1,0.8,1.4c3.2,3.3,13.9,6.6,28.3,6.6
				c8.2,0,15.9-1.1,21.7-3.1c5.8-2,7.4-4.1,7.4-5c-0.1-0.1-1.3-2-9.5-3.3c-5.4-0.8-12.5-1.2-19.5-0.9c-1.7,0.1-3-1.2-3.1-2.9
				c-0.1-1.7,1.2-3,2.9-3.1c6.5-0.2,13.2,0,18.7,0.7c7.3,0.9,12,2.5,14.5,4.9c1.7,1.7,2.1,3.4,2.1,4.6c0,3.1-2,7.4-11.4,10.7
				C60.4-37,52-35.8,43.1-35.8z"/>
		</g>
		<g>
			<path d="M43.5-3.4c-6.1,0-11.9-1.3-17-3.8c-5.2-2.5-8.5-5.7-9.9-7.4c-0.1-0.1-0.2-0.2-0.3-0.3l-5-7.5c-0.9-1.4-0.6-3.2,0.8-4.2
				c1.4-0.9,3.2-0.6,4.2,0.8l4.9,7.4c2.1,2.3,9.5,9.1,22.4,9.1c5.1,0,10-1.1,14.5-3.2c3-1.5,5.9-3.4,8.8-6l5.3-7.7
				c0.9-1.4,2.8-1.7,4.2-0.8c1.4,0.9,1.7,2.8,0.8,4.2l-5.5,8c-0.1,0.2-0.3,0.4-0.5,0.5c-3.4,3.1-6.8,5.4-10.5,7.2
				C55.3-4.7,49.5-3.4,43.5-3.4z"/>
		</g>
		<g>
			<path d="M43.4-15.1c-0.1,0-0.2,0-0.3,0c-8-0.1-15.5-2-20.3-3.6c-6.2-2.1-10.8-4.4-13-6C5-28,2.7-31.2,2.7-34.6
				c0.1-2.6,1.5-4.9,4.3-6.9l1.7-6.3c0.4-1.6,2.1-2.5,3.7-2.1c1.6,0.4,2.5,2.1,2.1,3.7l-2,7.3c-0.2,0.7-0.7,1.3-1.3,1.7
				c-1.6,1-2.5,2-2.5,2.7c0,0.9,1.1,2.7,4.5,5c1.8,1.2,5.8,3.3,11.5,5.2c4.4,1.5,11.2,3.2,18.4,3.3c7.1,0.1,14.3-1.9,19.1-3.5
				c5.6-1.9,10.2-4.2,12.1-5.5c1.2-0.8,2.6-1.8,3.7-3c0.9-1,1.4-1.9,1.4-2.6c0-0.4-0.3-0.9-0.7-1.5c-3.2,4.1-8.6,7.3-16.2,9.3
				c-8.4,2.3-16.9,2.5-19.3,2.6c-1.7,0-3-1.3-3-3c0-1.7,1.3-3,3-3c10.1-0.1,28.2-2.7,32.1-11.6c0.4-0.8,1-1.4,1.9-1.7
				c0.8-0.3,1.7-0.1,2.5,0.3c3.8,2.4,5.8,5.3,5.9,8.4c0.1,5.3-5.4,9-7.7,10.6c-2.3,1.6-7.4,4.1-13.5,6.2
				C59-17.1,51.3-15.1,43.4-15.1z"/>
		</g>
	</g>
</g>
</svg>
