<?xml version="1.0" encoding="UTF-8"?>
<svg width="3300px" height="2200px" viewBox="0 0 3300 2200" version="1.1" xmlns="http://www.w3.org/2000/svg" xmlns:xlink="http://www.w3.org/1999/xlink">
    <title>ddukbaegi.fill</title>
    <g id="Page-1" stroke="none" stroke-width="1" fill="none" fill-rule="evenodd">
        <g id="ddukbaegi.fill">
            <g id="Notes">
                <rect id="artboard" fill="#FFFFFF" fill-rule="nonzero" x="0" y="0" width="3300" height="2200"></rect>
                <line x1="263" y1="292" x2="3036" y2="292" id="Path" stroke="#000000" stroke-width="0.5"></line>
                <text id="Weight/Scale-Variations" fill="#000000" fill-rule="nonzero" font-family="Helvetica" font-size="13" font-weight="normal">
                    <tspan x="263" y="322">Weight/Scale Variations</tspan>
                </text>
                <text id="Ultralight" fill="#000000" fill-rule="nonzero" font-family="Helvetica" font-size="13" font-weight="normal">
                    <tspan x="533.711" y="322">Ultralight</tspan>
                </text>
                <text id="Thin" fill="#000000" fill-rule="nonzero" font-family="Helvetica" font-size="13" font-weight="normal">
                    <tspan x="843.422" y="322">Thin</tspan>
                </text>
                <text id="Light" fill="#000000" fill-rule="nonzero" font-family="Helvetica" font-size="13" font-weight="normal">
                    <tspan x="1138.63" y="322">Light</tspan>
                </text>
                <text id="Regular" fill="#000000" fill-rule="nonzero" font-family="Helvetica" font-size="13" font-weight="normal">
                    <tspan x="1426.84" y="322">Regular</tspan>
                </text>
                <text id="Medium" fill="#000000" fill-rule="nonzero" font-family="Helvetica" font-size="13" font-weight="normal">
                    <tspan x="1723.06" y="322">Medium</tspan>
                </text>
                <text id="Semibold" fill="#000000" fill-rule="nonzero" font-family="Helvetica" font-size="13" font-weight="normal">
                    <tspan x="2015.77" y="322">Semibold</tspan>
                </text>
                <text id="Bold" fill="#000000" fill-rule="nonzero" font-family="Helvetica" font-size="13" font-weight="normal">
                    <tspan x="2326.48" y="322">Bold</tspan>
                </text>
                <text id="Heavy" fill="#000000" fill-rule="nonzero" font-family="Helvetica" font-size="13" font-weight="normal">
                    <tspan x="2618.19" y="322">Heavy</tspan>
                </text>
                <text id="Black" fill="#000000" fill-rule="nonzero" font-family="Helvetica" font-size="13" font-weight="normal">
                    <tspan x="2917.4" y="322">Black</tspan>
                </text>
                <line x1="263" y1="1903" x2="3036" y2="1903" id="Path" stroke="#000000" stroke-width="0.5"></line>
                <g id="Group" transform="translate(264.367190, 1918.068400)" fill="#000000" fill-rule="nonzero">
                    <path d="M7.88086,15.761678 C12.18751,15.761678 15.77151,12.18746 15.77151,7.88082 C15.77151,3.5742 12.17771,0 7.87109,0 C3.57422,0 -8.8817842e-16,3.5742 -8.8817842e-16,7.88082 C-8.8817842e-16,12.18746 3.58398,15.761678 7.88086,15.761678 Z M7.88086,14.277303 C4.33593,14.277303 1.5039,11.43551 1.5039,7.88082 C1.5039,4.3261 4.32617,1.4843 7.87109,1.4843 C11.42581,1.4843 14.27731,4.3261 14.27731,7.88082 C14.27731,11.43551 11.43551,14.277303 7.88086,14.277303 Z M4.28711,7.88082 C4.28711,8.31051 4.58984,8.60348 5.03906,8.60348 L7.13867,8.60348 L7.13867,10.72262 C7.13867,11.16207 7.43164,11.4648 7.86133,11.4648 C8.31054,11.4648 8.60351,11.16207 8.60351,10.72262 L8.60351,8.60348 L10.72261,8.60348 C11.16211,8.60348 11.46481,8.31051 11.46481,7.88082 C11.46481,7.44137 11.16211,7.13863 10.72261,7.13863 L8.60351,7.13863 L8.60351,5.02926 C8.60351,4.58 8.31054,4.2773 7.86133,4.2773 C7.43164,4.2773 7.13867,4.58 7.13867,5.02926 L7.13867,7.13863 L5.03906,7.13863 C4.58984,7.13863 4.28711,7.44137 4.28711,7.88082 Z" id="Shape"></path>
                </g>
                <g id="Group" transform="translate(283.615050, 1915.988300)" fill="#000000" fill-rule="nonzero">
                    <path d="M9.96095,19.92186 C15.41015,19.92186 19.92185,15.40037 19.92185,9.96092 C19.92185,4.5117 15.40035,0 9.95115,0 C4.51172,0 8.8817842e-16,4.5117 8.8817842e-16,9.96092 C8.8817842e-16,15.40037 4.52148,19.92186 9.96095,19.92186 Z M9.96095,18.2617 C5.35156,18.2617 1.66992,14.57029 1.66992,9.96092 C1.66992,5.3515 5.34179,1.6601 9.95115,1.6601 C14.56055,1.6601 18.26175,5.3515 18.26175,9.96092 C18.26175,14.57029 14.57035,18.2617 9.96095,18.2617 Z M5.42968,9.96092 C5.42968,10.43943 5.76172,10.7617 6.25976,10.7617 L9.13085,10.7617 L9.13085,13.64256 C9.13085,14.13084 9.46285,14.47264 9.94145,14.47264 C10.42965,14.47264 10.77145,14.14061 10.77145,13.64256 L10.77145,10.7617 L13.65235,10.7617 C14.14065,10.7617 14.48245,10.43943 14.48245,9.96092 C14.48245,9.47264 14.14065,9.13084 13.65235,9.13084 L10.77145,9.13084 L10.77145,6.2597 C10.77145,5.7617 10.42965,5.4199 9.94145,5.4199 C9.46285,5.4199 9.13085,5.7617 9.13085,6.2597 L9.13085,9.13084 L6.25976,9.13084 C5.76172,9.13084 5.42968,9.47264 5.42968,9.96092 Z" id="Shape"></path>
                </g>
                <g id="Group" transform="translate(307.901860, 1913.224600)" fill="#000000" fill-rule="nonzero">
                    <path d="M12.71484,25.43946 C19.67774,25.43946 25.43944,19.6777438 25.43944,12.72462 C25.43944,5.7617 19.66794,0 12.70504,0 C5.75195,0 0,5.7617 0,12.72462 C0,19.6777438 5.76172,25.43946 12.71484,25.43946 Z M12.71484,23.62306 C6.67969,23.62306 1.82617,18.75978 1.82617,12.72462 C1.82617,6.6797 6.66992,1.8262 12.70504,1.8262 C18.75004,1.8262 23.61324,6.6797 23.61324,12.72462 C23.61324,18.75978 18.75974,23.62306 12.71484,23.62306 Z M6.94336,12.72462 C6.94336,13.2422 7.31445,13.60352 7.86134,13.60352 L11.80664,13.60352 L11.80664,17.5586 C11.80664,18.09571 12.17774,18.47657 12.69534,18.47657 C13.23244,18.47657 13.60354,18.10548 13.60354,17.5586 L13.60354,13.60352 L17.55864,13.60352 C18.09574,13.60352 18.47654,13.2422 18.47654,12.72462 C18.47654,12.17774 18.10544,11.80665 17.55864,11.80665 L13.60354,11.80665 L13.60354,7.8613 C13.60354,7.3145 13.23244,6.9336 12.69534,6.9336 C12.17774,6.9336 11.80664,7.3145 11.80664,7.8613 L11.80664,11.80665 L7.86134,11.80665 C7.31445,11.80665 6.94336,12.17774 6.94336,12.72462 Z" id="Shape"></path>
                </g>
                <text id="Design-Variations" fill="#000000" fill-rule="nonzero" font-family="Helvetica" font-size="13" font-weight="normal">
                    <tspan x="263" y="1953">Design Variations</tspan>
                </text>
                <text id="Symbols-are-supported-in-up-to-nine-weights-and-three-scales." fill="#000000" fill-rule="nonzero" font-family="Helvetica" font-size="13" font-weight="normal">
                    <tspan x="263" y="1971">Symbols are supported in up to nine weights and three scales.</tspan>
                </text>
                <text id="For-optimal-layout-with-text-and-other-symbols,-vertically-align" fill="#000000" fill-rule="nonzero" font-family="Helvetica" font-size="13" font-weight="normal">
                    <tspan x="263" y="1989">For optimal layout with text and other symbols, vertically align</tspan>
                </text>
                <text id="symbols-with-the-adjacent-text." fill="#000000" fill-rule="nonzero" font-family="Helvetica" font-size="13" font-weight="normal">
                    <tspan x="263" y="2007">symbols with the adjacent text.</tspan>
                </text>
                <line x1="776" y1="1919" x2="776" y2="1933" id="Path" stroke="#00AEEF" stroke-width="0.5"></line>
                <g id="Group" transform="translate(778.490230, 1918.732400)" fill="#000000" fill-rule="nonzero">
                    <path d="M0.82032,14.42385 C1.33789,14.42385 1.5918,14.2285375 1.77735,13.681662 L3.03711,10.2344 L8.79887,10.2344 L10.05857,13.681662 C10.24417,14.2285375 10.49807,14.42385 11.00587,14.42385 C11.52347,14.42385 11.85547,14.11135 11.85547,13.623069 C11.85547,13.457053 11.82617,13.300803 11.74807,13.09572 L7.16797,0.8985 C6.94336,0.3028 6.54297,0 5.91797,0 C5.3125,0 4.90235,0.293 4.6875,0.8887 L0.10743,13.10549 C0.0293,13.310569 -4.4408921e-16,13.466819 -4.4408921e-16,13.632834 C-4.4408921e-16,14.121116 0.3125,14.42385 0.82032,14.42385 Z M3.51563,8.75002 L5.88868,2.1778 L5.9375,2.1778 L8.31057,8.75002 L3.51563,8.75002 Z" id="Shape"></path>
                </g>
                <line x1="793.197" y1="1919" x2="793.197" y2="1933" id="Path" stroke="#00AEEF" stroke-width="0.5"></line>
                <text id="Margins" fill="#000000" fill-rule="nonzero" font-family="Helvetica" font-size="13" font-weight="normal">
                    <tspan x="776" y="1953">Margins</tspan>
                </text>
                <text id="Leading-and-trailing-margins-on-the-left-and-right-side-of-each-symbol" fill="#000000" fill-rule="nonzero" font-family="Helvetica" font-size="13" font-weight="normal">
                    <tspan x="776" y="1971">Leading and trailing margins on the left and right side of each symbol</tspan>
                </text>
                <text id="can-be-adjusted-by-modifying-the-x-location-of-the-margin-guidelines." fill="#000000" fill-rule="nonzero" font-family="Helvetica" font-size="13" font-weight="normal">
                    <tspan x="776" y="1989">can be adjusted by modifying the x-location of the margin guidelines.</tspan>
                </text>
                <text id="Modifications-are-automatically-applied-proportionally-to-all" fill="#000000" fill-rule="nonzero" font-family="Helvetica" font-size="13" font-weight="normal">
                    <tspan x="776" y="2007">Modifications are automatically applied proportionally to all</tspan>
                </text>
                <text id="scales-and-weights." fill="#000000" fill-rule="nonzero" font-family="Helvetica" font-size="13" font-weight="normal">
                    <tspan x="776" y="2025">scales and weights.</tspan>
                </text>
                <g id="Group" transform="translate(1291.248126, 1914.517396)" fill="#000000" fill-rule="nonzero">
                    <path d="M0.593673634,20.347834 L2.29289363,22.056824 C3.15226363,22.925964 4.13859363,22.867374 5.06632363,21.841984 L15.7596736,10.054874 L14.7928736,9.07830404 L4.17765363,20.757994 C3.82609363,21.158384 3.49406363,21.256044 3.02531363,20.787294 L1.85343363,19.625184 C1.38468363,19.166198 1.49210363,18.824401 1.89249363,18.4630728 L13.3670736,7.66230404 L12.3905736,6.69550404 L0.798753634,17.584166 C-0.187576366,18.5021352 -0.265706366,19.478698 0.593673634,20.347834 Z M7.00968363,2.15450404 C6.58976363,2.56460404 6.56046363,3.14080404 6.79484363,3.53140404 C7.02921363,3.89280404 7.48820363,4.12710404 8.13277363,3.96110404 C9.59757363,3.61930404 11.1209736,3.56070404 12.5467736,4.49820404 L11.9608736,5.95330404 C11.6190736,6.78340404 11.7948736,7.36930404 12.3319736,7.91620404 L14.6268736,10.230654 C15.1151736,10.718934 15.5252736,10.738464 16.0916736,10.640804 L17.1561736,10.445494 L17.8202736,11.119324 L17.7811736,11.675964 C17.7420736,12.174014 17.8690736,12.554874 18.3573736,13.033384 L19.1190736,13.775574 C19.5975736,14.254084 20.2127736,14.283384 20.6815736,13.814634 L23.5916736,10.894714 C24.0604736,10.425964 24.0409736,9.83026404 23.5623736,9.35174404 L22.7909736,8.59002404 C22.3123736,8.11150404 21.9413736,7.95530404 21.4627736,7.99430404 L20.8866736,8.04310404 L20.2420736,7.40840404 L20.4862736,6.28530404 C20.6131736,5.71890404 20.4569736,5.27950404 19.8709736,4.69350404 L17.6737736,2.50600404 C14.3338736,-0.814295964 9.90027363,-0.736195964 7.00968363,2.15450404 Z M8.50387363,2.52560404 C10.9354736,0.748204036 14.2264736,1.05100404 16.4530736,3.27750404 L18.8846736,5.68960404 C19.1190736,5.92400404 19.1580736,6.10960404 19.0897736,6.45140404 L18.7674736,7.93570404 L20.2713736,9.42010404 L21.2577736,9.36151404 C21.5116736,9.35174404 21.5897736,9.37127404 21.7850736,9.56658404 L22.3612736,10.142764 L19.9198736,12.584164 L19.3436736,12.007994 C19.1483736,11.812684 19.1190736,11.734554 19.1288736,11.470884 L19.1971736,10.494324 L17.7030736,9.00994404 L16.1795736,9.26385404 C15.8573736,9.33221404 15.7108736,9.30291404 15.4666736,9.06854404 L13.4647736,7.06660404 C13.2108736,6.83220404 13.1815736,6.66620404 13.3377736,6.29510404 L14.2166736,4.20530404 C12.6541736,2.75020404 10.6229736,2.12520404 8.59167363,2.72090404 C8.43547363,2.75990404 8.37687363,2.63300404 8.50387363,2.52560404 Z" id="Shape"></path>
                </g>
                <text id="Exporting" fill="#000000" fill-rule="nonzero" font-family="Helvetica" font-size="13" font-weight="normal">
                    <tspan x="1289" y="1953">Exporting</tspan>
                </text>
                <text id="Symbols-should-be-outlined-when-exporting-to-ensure-the" fill="#000000" fill-rule="nonzero" font-family="Helvetica" font-size="13" font-weight="normal">
                    <tspan x="1289" y="1971">Symbols should be outlined when exporting to ensure the</tspan>
                </text>
                <text id="design-is-preserved-when-submitting-to-Xcode." fill="#000000" fill-rule="nonzero" font-family="Helvetica" font-size="13" font-weight="normal">
                    <tspan x="1289" y="1989">design is preserved when submitting to Xcode.</tspan>
                </text>
                <text id="template-version" fill="#000000" fill-rule="nonzero" font-family="Helvetica" font-size="13" font-weight="normal">
                    <tspan x="2952" y="1933">Template v.4.0</tspan>
                </text>
                <text id="Requires-Xcode-14-or-greater" fill="#000000" fill-rule="nonzero" font-family="Helvetica" font-size="13" font-weight="normal">
                    <tspan x="2865" y="1951">Requires Xcode 14 or greater</tspan>
                </text>
                <text id="descriptive-name" fill="#000000" fill-rule="nonzero" font-family="Helvetica" font-size="13" font-weight="normal">
                    <tspan x="2865" y="1969">Generated from custom.circle</tspan>
                </text>
                <text id="Typeset-at-100-points" fill="#000000" fill-rule="nonzero" font-family="Helvetica" font-size="13" font-weight="normal">
                    <tspan x="2912" y="1987">Typeset at 100 points</tspan>
                </text>
                <text id="Small" fill="#000000" fill-rule="nonzero" font-family="Helvetica" font-size="13" font-weight="normal">
                    <tspan x="263" y="726">Small</tspan>
                </text>
                <text id="Medium" fill="#000000" fill-rule="nonzero" font-family="Helvetica" font-size="13" font-weight="normal">
                    <tspan x="263" y="1156">Medium</tspan>
                </text>
                <text id="Large" fill="#000000" fill-rule="nonzero" font-family="Helvetica" font-size="13" font-weight="normal">
                    <tspan x="263" y="1586">Large</tspan>
                </text>
            </g>
            <g id="Guides" transform="translate(264.000000, 621.041000)">
                <g id="H-reference" transform="translate(76.993654, 0.500000)" fill="#27AAE1" fill-rule="nonzero">
                    <path d="M0,70.459 L2.644096,70.459 L28.334446,3.3267 L29.036646,3.3267 L29.036646,0 L27.128946,0 L0,70.459 Z M10.694846,45.9791 L45.987846,45.9791 L45.237846,43.7305 L11.444846,43.7305 L10.694846,45.9791 Z M54.125946,70.459 L56.770046,70.459 L29.644546,0 L28.438946,0 L28.438946,3.3267 L54.125946,70.459 Z" id="Shape"></path>
                </g>
                <line x1="0" y1="70.959" x2="2773" y2="70.959" id="Baseline-S" stroke="#27AAE1" stroke-width="0.5"></line>
                <line x1="0" y1="0.5" x2="2773" y2="0.5" id="Capline-S" stroke="#27AAE1" stroke-width="0.5"></line>
                <g id="H-reference" transform="translate(76.993654, 430.500000)" fill="#27AAE1" fill-rule="nonzero">
                    <path d="M0,70.459 L2.644096,70.459 L28.334446,3.3267 L29.036646,3.3267 L29.036646,0 L27.128946,0 L0,70.459 Z M10.694846,45.9791 L45.987846,45.9791 L45.237846,43.7305 L11.444846,43.7305 L10.694846,45.9791 Z M54.125946,70.459 L56.770046,70.459 L29.644546,0 L28.438946,0 L28.438946,3.3267 L54.125946,70.459 Z" id="Shape"></path>
                </g>
                <line x1="0" y1="500.959" x2="2773" y2="500.959" id="Baseline-M" stroke="#27AAE1" stroke-width="0.5"></line>
                <line x1="0" y1="430.499" x2="2773" y2="430.499" id="Capline-M" stroke="#27AAE1" stroke-width="0.5"></line>
                <g id="H-reference" transform="translate(76.993654, 860.500000)" fill="#27AAE1" fill-rule="nonzero">
                    <path d="M0,70.459 L2.644096,70.459 L28.334446,3.3267 L29.036646,3.3267 L29.036646,0 L27.128946,0 L0,70.459 Z M10.694846,45.9791 L45.987846,45.9791 L45.237846,43.7305 L11.444846,43.7305 L10.694846,45.9791 Z M54.125946,70.459 L56.770046,70.459 L29.644546,0 L28.438946,0 L28.438946,3.3267 L54.125946,70.459 Z" id="Shape"></path>
                </g>
                <line x1="0" y1="930.959" x2="2773" y2="930.959" id="Baseline-L" stroke="#27AAE1" stroke-width="0.5"></line>
                <line x1="0" y1="860.499" x2="2773" y2="860.499" id="Capline-L" stroke="#27AAE1" stroke-width="0.5"></line>
                <line x1="1128.32" y1="405.739" x2="1128.32" y2="525.079" id="left-margin-Regular-M" stroke="#00AEEF" stroke-width="0.5"></line>
                <line x1="1245.37" y1="405.739" x2="1245.37" y2="525.079" id="right-margin-Regular-M" stroke="#00AEEF" stroke-width="0.5"></line>
            </g>
            <g id="Symbols" transform="translate(492.999800, 619.000000)" fill="#000000">
                <g id="Black-L" transform="translate(2361.959900, 837.650900)">
                    <path d="M80.043,51.832 C46.988,51.832 20.191,41.866 20.191,29.573 C20.191,17.28 46.988,7.314 80.043,7.314 C113.098,7.314 139.895,17.28 139.895,29.573 C139.895,41.866 113.098,51.832 80.043,51.832 M150.466,32.187 C150.361,14.403 118.874,0 80.043,0 C41.212,0 9.725,14.403 9.62,32.187 C3.485,36.753 0,41.982 0,47.539 C0,54.106 4.877,60.212 13.231,65.309 C14.578,72.498 16.531,80.489 18.989,89.355 C28.826,124.827 65.272,124.258 80.283,124.338 C95.295,124.258 131.741,124.827 141.577,89.355 C144.075,80.347 146.049,72.245 147.397,64.967 C155.416,59.939 160.086,53.961 160.086,47.539 C160.086,41.982 156.6,36.753 150.466,32.187" id="Shape"></path>
                </g>
                <g id="Heavy-L" transform="translate(2066.817000, 838.869600)">
                    <path d="M78.473,50.816 C46.066,50.816 19.795,41.046 19.795,28.993 C19.795,16.941 46.066,7.171 78.473,7.171 C110.88,7.171 137.151,16.941 137.151,28.993 C137.151,41.046 110.88,50.816 78.473,50.816 M147.515,31.556 C147.412,14.121 116.543,0 78.473,0 C40.403,0 9.534,14.121 9.431,31.556 C3.417,36.032 0,41.159 0,46.607 C0,53.046 4.781,59.031 12.971,64.029 C14.291,71.076 16.206,78.911 18.616,87.603 C28.26,122.38 63.991,121.822 78.709,121.9 C93.426,121.822 129.157,122.38 138.801,87.603 C141.249,78.772 143.185,70.829 144.506,63.694 C152.368,58.764 156.946,52.903 156.946,46.607 C156.946,41.159 153.529,36.032 147.515,31.556" id="Shape"></path>
                </g>
                <g id="Bold-L" transform="translate(1771.646400, 840.065300)">
                    <path d="M76.935,49.819 C45.163,49.819 19.407,40.24 19.407,28.424 C19.407,16.608 45.163,7.03 76.935,7.03 C108.707,7.03 134.463,16.608 134.463,28.424 C134.463,40.24 108.707,49.819 76.935,49.819 M144.623,30.937 C144.522,13.843 114.258,0 76.935,0 C39.612,0 9.348,13.843 9.247,30.937 C3.35,35.325 0,40.351 0,45.693 C0,52.005 4.688,57.873 12.718,62.773 C14.012,69.682 15.889,77.363 18.252,85.884 C27.707,119.98 62.737,119.433 77.166,119.509 C91.595,119.433 126.626,119.98 136.08,85.884 C138.481,77.227 140.378,69.439 141.674,62.444 C149.381,57.612 153.87,51.865 153.87,45.693 C153.87,40.351 150.52,35.325 144.623,30.937" id="Shape"></path>
                </g>
                <g id="Semibold-L" transform="translate(1476.442500, 841.237100)">
                    <path d="M75.426,48.842 C44.277,48.842 19.026,39.451 19.026,27.867 C19.026,16.283 44.277,6.892 75.426,6.892 C106.575,6.892 131.826,16.283 131.826,27.867 C131.826,39.451 106.575,48.842 75.426,48.842 M141.787,30.33 C141.688,13.572 112.018,0 75.426,0 C38.834,0 9.164,13.572 9.065,30.33 C3.284,34.633 0,39.56 0,44.797 C0,50.985 4.595,56.738 12.468,61.542 C13.737,68.316 15.577,75.846 17.894,84.2 C27.163,117.627 61.507,117.091 75.652,117.166 C89.798,117.091 124.142,117.627 133.411,84.2 C135.765,75.713 137.625,68.078 138.895,61.22 C146.451,56.482 150.852,50.848 150.852,44.797 C150.852,39.56 147.568,34.632 141.787,30.33" id="Fill-48"></path>
                </g>
                <g id="Medium-L" transform="translate(1181.218500, 843.385100)">
                    <path d="M73.947,47.885 C43.409,47.885 18.653,38.678 18.653,27.321 C18.653,15.964 43.409,6.757 73.947,6.757 C104.485,6.757 129.241,15.964 129.241,27.321 C129.241,38.678 104.485,47.885 73.947,47.885 M139.007,29.736 C138.91,13.306 109.821,0 73.947,0 C38.073,0 8.984,13.306 8.887,29.736 C3.22,33.954 0,38.785 0,43.919 C0,49.986 4.505,55.626 12.223,60.336 C13.467,66.977 15.272,74.36 17.543,82.55 C26.63,115.321 60.301,114.796 74.169,114.869 C88.037,114.796 121.708,115.321 130.795,82.55 C133.103,74.229 134.926,66.744 136.172,60.02 C143.58,55.375 147.894,49.852 147.894,43.919 C147.894,38.785 144.674,33.954 139.007,29.736" id="Shape"></path>
                </g>
                <g id="Regular-L" transform="translate(885.956400, 843.511400)">
                    <path d="M72.497,46.946 C42.558,46.946 18.287,37.92 18.287,26.785 C18.287,15.651 42.558,6.625 72.497,6.625 C102.436,6.625 126.707,15.651 126.707,26.785 C126.707,37.92 102.436,46.946 72.497,46.946 M136.281,29.153 C136.186,13.045 107.668,0 72.497,0 C37.326,0 8.808,13.045 8.713,29.153 C3.156,33.288 0,38.024 0,43.058 C0,49.006 4.417,54.536 11.984,59.152 C13.203,65.663 14.972,72.901 17.199,80.931 C26.108,113.06 59.118,112.545 72.715,112.617 C86.311,112.545 119.321,113.06 128.231,80.931 C130.493,72.773 132.281,65.435 133.502,58.843 C140.764,54.289 144.994,48.874 144.994,43.058 C144.994,38.024 141.837,33.288 136.281,29.153" id="Shape"></path>
                </g>
                <g id="Light-L" transform="translate(590.666000, 844.616000)">
                    <path d="M71.076,46.025 C41.724,46.025 17.929,37.176 17.929,26.26 C17.929,15.343 41.724,6.494 71.076,6.494 C100.428,6.494 124.223,15.343 124.223,26.26 C124.223,37.176 100.428,46.025 71.076,46.025 M133.61,28.581 C133.516,12.789 105.557,0 71.076,0 C36.595,0 8.636,12.789 8.542,28.581 C3.095,32.635 0,37.278 0,42.213 C0,48.045 4.331,53.466 11.749,57.992 C12.945,64.375 14.679,71.472 16.862,79.344 C25.596,110.843 57.959,110.337 71.289,110.408 C84.619,110.337 116.982,110.843 125.717,79.344 C127.935,71.346 129.688,64.151 130.885,57.689 C138.005,53.224 142.152,47.916 142.152,42.213 C142.152,37.278 139.057,32.635 133.61,28.581" id="Shape"></path>
                </g>
                <g id="Thin-L" transform="translate(295.345400, 845.697900)">
                    <path d="M69.682,45.123 C40.905,45.123 17.577,36.447 17.577,25.745 C17.577,15.043 40.905,6.367 69.682,6.367 C98.459,6.367 121.787,15.043 121.787,25.745 C121.787,36.447 98.459,45.123 69.682,45.123 M130.989,28.021 C130.898,12.539 103.487,0 69.682,0 C35.877,0 8.466,12.539 8.374,28.021 C3.034,31.996 0,36.548 0,41.386 C0,47.103 4.245,52.418 11.518,56.855 C12.691,63.114 14.391,70.071 16.531,77.789 C25.094,108.67 56.823,108.174 69.891,108.244 C82.96,108.174 114.688,108.67 123.251,77.789 C125.426,69.947 127.144,62.894 128.318,56.558 C135.298,52.181 139.364,46.977 139.364,41.386 C139.364,36.548 136.33,31.996 130.989,28.021" id="Shape"></path>
                </g>
                <g id="Ultralight-L" transform="translate(-0.000000, 846.759400)">
                    <path d="M68.316,44.238 C40.104,44.238 17.233,35.732 17.233,25.24 C17.233,14.748 40.104,6.242 68.316,6.242 C96.528,6.242 119.399,14.748 119.399,25.24 C119.399,35.732 96.528,44.238 68.316,44.238 M128.421,27.471 C128.332,12.292 101.458,0 68.316,0 C35.174,0 8.3,12.293 8.211,27.471 C2.975,31.368 0,35.831 0,40.574 C0,46.179 4.162,51.39 11.293,55.74 C12.442,61.876 14.109,68.696 16.207,76.263 C24.603,106.539 55.709,106.053 68.521,106.121 C81.333,106.053 112.44,106.539 120.835,76.263 C122.967,68.576 124.652,61.66 125.802,55.449 C132.646,51.158 136.632,46.055 136.632,40.574 C136.632,35.831 133.657,31.368 128.421,27.471" id="Shape"></path>
                </g>
                <g id="Black-M" transform="translate(2375.032500, 417.627800)">
                    <path d="M66.976,43.371 C39.317,43.371 16.895,35.032 16.895,24.746 C16.895,14.459 39.317,6.12 66.976,6.12 C94.635,6.12 117.057,14.459 117.057,24.746 C117.057,35.032 94.635,43.371 66.976,43.371 M125.903,26.933 C125.815,12.052 99.468,0 66.976,0 C34.484,0 8.137,12.052 8.049,26.933 C2.916,30.753 0,35.129 0,39.779 C0,45.274 4.08,50.383 11.071,54.648 C12.198,60.663 13.832,67.35 15.889,74.768 C24.12,104.45 54.616,103.974 67.177,104.041 C79.738,103.974 110.235,104.45 118.465,74.768 C120.555,67.231 122.207,60.452 123.335,54.362 C130.044,50.155 133.952,45.153 133.952,39.779 C133.952,35.129 131.036,30.753 125.903,26.933" id="Shape"></path>
                </g>
                <g id="Heavy-M" transform="translate(2079.633300, 418.648400)">
                    <path d="M65.663,42.52 C38.546,42.52 16.564,34.345 16.564,24.26 C16.564,14.175 38.546,6 65.663,6 C92.78,6 114.762,14.175 114.762,24.26 C114.762,34.345 92.78,42.52 65.663,42.52 M123.434,26.404 C123.348,11.815 97.518,0 65.663,0 C33.808,0 7.978,11.815 7.892,26.404 C2.859,30.15 0,34.439 0,38.998 C0,44.386 4.001,49.394 10.854,53.576 C11.959,59.473 13.561,66.029 15.578,73.302 C23.647,102.402 53.545,101.935 65.86,102 C78.175,101.935 108.073,102.402 116.142,73.302 C118.192,65.912 119.811,59.266 120.917,53.296 C127.495,49.171 131.326,44.267 131.326,38.998 C131.326,34.439 128.467,30.15 123.434,26.404" id="Shape"></path>
                </g>
                <g id="Bold-M" transform="translate(1784.209400, 419.648600)">
                    <path d="M64.375,41.686 C37.79,41.686 16.238,33.671 16.238,23.784 C16.238,13.897 37.79,5.882 64.375,5.882 C90.96,5.882 112.511,13.897 112.511,23.784 C112.511,33.671 90.96,41.686 64.375,41.686 M121.014,25.886 C120.929,11.583 95.606,0 64.375,0 C33.144,0 7.821,11.583 7.736,25.886 C2.803,29.558 0,33.764 0,38.233 C0,43.515 3.922,48.425 10.641,52.525 C11.724,58.307 13.295,64.734 15.272,71.864 C23.183,100.393 52.495,99.936 64.568,100 C76.642,99.936 105.954,100.393 113.865,71.864 C115.874,64.62 117.461,58.104 118.546,52.25 C124.994,48.207 128.75,43.398 128.75,38.233 C128.75,33.764 125.947,29.558 121.014,25.886" id="Shape"></path>
                </g>
                <g id="Semibold-M" transform="translate(1488.759400, 420.628600)">
                    <path d="M63.113,40.869 C37.049,40.869 15.92,33.011 15.92,23.318 C15.92,13.625 37.049,5.767 63.113,5.767 C89.177,5.767 110.306,13.625 110.306,23.318 C110.306,33.011 89.177,40.869 63.113,40.869 M118.641,25.379 C118.558,11.356 93.731,0 63.113,0 C32.495,0 7.668,11.356 7.585,25.379 C2.748,28.979 0,33.102 0,37.484 C0,42.662 3.845,47.476 10.432,51.495 C11.494,57.164 13.034,63.465 14.973,70.455 C22.728,98.425 51.466,97.977 63.302,98.039 C75.139,97.977 103.877,98.425 111.632,70.455 C113.602,63.353 115.158,56.965 116.221,51.226 C122.544,47.262 126.226,42.548 126.226,37.484 C126.226,33.102 123.478,28.979 118.641,25.379" id="Shape"></path>
                </g>
                <g id="Medium-M" transform="translate(1193.287400, 421.589500)">
                    <path d="M61.876,40.068 C36.323,40.068 15.609,32.364 15.609,22.861 C15.609,13.358 36.323,5.654 61.876,5.654 C87.429,5.654 108.143,13.358 108.143,22.861 C108.143,32.364 87.429,40.068 61.876,40.068 M116.315,24.882 C116.234,11.134 91.894,0 61.876,0 C31.858,0 7.518,11.134 7.437,24.882 C2.695,28.411 0,32.453 0,36.75 C0,41.826 3.77,46.546 10.228,50.486 C11.269,56.043 12.779,62.221 14.68,69.074 C22.283,96.496 50.457,96.056 62.062,96.117 C73.666,96.056 101.84,96.496 109.444,69.074 C111.375,62.111 112.901,55.848 113.943,50.222 C120.141,46.335 123.752,41.714 123.752,36.75 C123.752,32.453 121.057,28.411 116.315,24.882" id="Shape"></path>
                </g>
                <g id="Regular-M" transform="translate(897.788400, 422.532100)">
                    <path d="M60.662,39.282 C35.61,39.282 15.302,31.729 15.302,22.412 C15.302,13.096 35.61,5.543 60.662,5.543 C85.714,5.543 106.022,13.096 106.022,22.412 C106.022,31.729 85.714,39.282 60.662,39.282 M114.034,24.394 C113.954,10.915 90.091,0 60.662,0 C31.233,0 7.37,10.915 7.29,24.394 C2.641,27.854 0,31.817 0,36.029 C0,41.006 3.695,45.633 10.027,49.496 C11.048,54.944 12.528,61 14.391,67.719 C21.846,94.603 49.467,94.172 60.844,94.232 C72.221,94.172 99.843,94.603 107.297,67.719 C109.19,60.893 110.686,54.753 111.708,49.237 C117.785,45.426 121.324,40.896 121.324,36.029 C121.324,31.817 118.683,27.854 114.034,24.394" id="Shape"></path>
                </g>
                <g id="Light-M" transform="translate(603.959400, 424.776200)">
                    <path d="M57.774,37.411 C33.915,37.411 14.574,30.218 14.574,21.345 C14.574,12.472 33.915,5.278 57.774,5.278 C81.633,5.278 100.974,12.472 100.974,21.345 C100.974,30.218 81.633,37.411 57.774,37.411 M108.604,23.232 C108.528,10.395 85.802,0 57.774,0 C29.746,0 7.019,10.395 6.944,23.232 C2.516,26.527 0,30.301 0,34.313 C0,39.053 3.52,43.459 9.55,47.138 C10.522,52.327 11.932,58.095 13.706,64.494 C20.806,90.098 47.112,89.687 57.947,89.745 C68.783,89.687 95.089,90.098 102.189,64.494 C103.991,57.993 105.416,52.145 106.389,46.892 C112.177,43.263 115.548,38.948 115.548,34.313 C115.548,30.301 113.032,26.527 108.604,23.232" id="Shape"></path>
                </g>
                <g id="Thin-M" transform="translate(310.004400, 426.912500)">
                    <path d="M55.023,35.63 C32.3,35.63 13.88,28.779 13.88,20.329 C13.88,11.878 32.3,5.028 55.023,5.028 C77.746,5.028 96.166,11.878 96.166,20.329 C96.166,28.779 77.746,35.63 55.023,35.63 M103.433,22.126 C103.361,9.901 81.716,0 55.023,0 C28.33,0 6.685,9.901 6.613,22.126 C2.396,25.264 0,28.859 0,32.679 C0,37.193 3.353,41.39 9.096,44.894 C10.021,49.836 11.364,55.329 13.054,61.424 C19.815,85.808 44.869,85.417 55.188,85.472 C65.507,85.417 90.561,85.808 97.323,61.424 C99.04,55.232 100.397,49.662 101.323,44.659 C106.835,41.203 110.046,37.094 110.046,32.679 C110.046,28.859 107.65,25.264 103.433,22.126" id="Shape"></path>
                </g>
                <g id="Ultralight-M" transform="translate(15.913900, 428.947900)">
                    <path d="M52.402,33.933 C30.761,33.933 13.218,27.409 13.218,19.36 C13.218,11.312 30.761,4.788 52.402,4.788 C74.043,4.788 91.586,11.312 91.586,19.36 C91.586,27.409 74.043,33.933 52.402,33.933 M98.507,21.072 C98.438,9.429 77.824,0 52.402,0 C26.98,0 6.366,9.429 6.297,21.072 C2.281,24.061 0,27.484 0,31.123 C0,35.422 3.192,39.419 8.662,42.756 C9.543,47.462 10.822,52.694 12.431,58.498 C18.871,81.722 42.731,81.349 52.559,81.401 C62.387,81.349 86.248,81.722 92.687,58.498 C94.323,52.601 95.615,47.297 96.498,42.533 C101.747,39.241 104.804,35.327 104.804,31.123 C104.804,27.484 102.523,24.061 98.507,21.072" id="Shape"></path>
                </g>
                <g id="Black-S" transform="translate(2392.098100, 0.000000)">
                    <path d="M49.907,32.317 C29.297,32.317 12.589,26.103 12.589,18.438 C12.589,10.773 29.297,4.56 49.907,4.56 C70.517,4.56 87.225,10.773 87.225,18.438 C87.225,26.103 70.517,32.317 49.907,32.317 M93.816,20.068 C93.751,8.98 74.119,0 49.907,0 C25.695,0 6.063,8.98 5.998,20.068 C2.173,22.915 0,26.175 0,29.64 C0,33.735 3.041,37.542 8.25,40.72 C9.089,45.202 10.307,50.185 11.84,55.713 C17.973,77.83 40.697,77.475 50.057,77.525 C59.417,77.475 82.141,77.83 88.274,55.713 C89.831,50.096 91.062,45.045 91.903,40.507 C96.902,37.372 99.814,33.645 99.814,29.64 C99.814,26.175 97.641,22.915 93.816,20.068" id="Shape"></path>
                </g>
                <g id="Heavy-S" transform="translate(2097.765800, 1.845000)">
                    <path d="M47.531,30.779 C27.902,30.779 11.99,24.861 11.99,17.561 C11.99,10.261 27.902,4.343 47.531,4.343 C67.16,4.343 83.072,10.261 83.072,17.561 C83.072,24.861 67.16,30.779 47.531,30.779 M89.349,19.114 C89.287,8.553 70.59,0 47.531,0 C24.472,0 5.775,8.553 5.713,19.114 C2.07,21.825 0,24.93 0,28.23 C0,32.13 2.896,35.755 7.857,38.782 C8.657,43.05 9.817,47.796 11.277,53.06 C17.117,74.125 38.76,73.787 47.674,73.834 C56.588,73.787 78.23,74.125 84.071,53.06 C85.554,47.712 86.727,42.901 87.527,38.579 C92.288,35.593 95.062,32.043 95.062,28.23 C95.062,24.93 92.992,21.825 89.349,19.114" id="Shape"></path>
                </g>
                <g id="Bold-S" transform="translate(1803.314700, 3.603300)">
                    <path d="M45.267,29.313 C26.573,29.313 11.418,23.677 11.418,16.725 C11.418,9.772 26.573,4.136 45.267,4.136 C63.961,4.136 79.115,9.772 79.115,16.725 C79.115,23.677 63.961,29.313 45.267,29.313 M85.094,18.203 C85.034,8.145 67.228,0 45.267,0 C23.306,0 5.499,8.145 5.44,18.203 C1.971,20.785 0,23.742 0,26.885 C0,30.599 2.758,34.052 7.482,36.935 C8.244,41 9.349,45.52 10.739,50.533 C16.302,70.595 36.913,70.273 45.403,70.318 C53.893,70.273 74.504,70.595 80.067,50.533 C81.48,45.439 82.596,40.857 83.358,36.742 C87.893,33.898 90.534,30.517 90.534,26.885 C90.534,23.742 88.563,20.785 85.094,18.203" id="Shape"></path>
                </g>
                <g id="Semibold-S" transform="translate(1508.758700, 6.579000)">
                    <path d="M43.112,27.917 C25.308,27.917 10.875,22.549 10.875,15.928 C10.875,9.307 25.308,3.939 43.112,3.939 C60.916,3.939 75.349,9.307 75.349,15.928 C75.349,22.549 60.916,27.917 43.112,27.917 M81.042,17.336 C80.986,7.757 64.027,0 43.112,0 C22.197,0 5.238,7.757 5.182,17.336 C1.878,19.795 0,22.612 0,25.605 C0,29.142 2.627,32.43 7.127,35.176 C7.852,39.048 8.904,43.352 10.228,48.127 C15.526,67.233 35.156,66.926 43.242,66.969 C51.327,66.926 70.957,67.233 76.255,48.127 C77.6,43.276 78.663,38.912 79.39,34.992 C83.708,32.284 86.224,29.064 86.224,25.605 C86.224,22.612 84.346,19.795 81.042,17.336" id="Shape"></path>
                </g>
                <g id="Medium-S" transform="translate(1214.103300, 8.189900)">
                    <path d="M41.059,26.588 C24.103,26.588 10.357,21.476 10.357,15.17 C10.357,8.864 24.103,3.752 41.059,3.752 C58.015,3.752 71.761,8.864 71.761,15.17 C71.761,21.476 58.015,26.588 41.059,26.588 M77.183,16.511 C77.129,7.388 60.978,0 41.059,0 C21.14,0 4.989,7.388 4.935,16.511 C1.788,18.853 0,21.535 0,24.386 C0,27.755 2.502,30.886 6.787,33.501 C7.478,37.189 8.48,41.288 9.741,45.836 C14.787,64.032 33.482,63.74 41.182,63.781 C48.883,63.74 67.578,64.032 72.624,45.836 C73.905,41.215 74.917,37.059 75.609,33.326 C79.722,30.747 82.118,27.68 82.118,24.386 C82.118,21.535 80.33,18.853 77.183,16.511" id="Shape"></path>
                </g>
                <g id="Regular-S" transform="translate(918.194300, 8.837900)">
                    <path d="M40.254,26.066 C23.63,26.066 10.154,21.054 10.154,14.872 C10.154,8.69 23.63,3.678 40.254,3.678 C56.877,3.678 70.354,8.69 70.354,14.872 C70.354,21.054 56.877,26.066 40.254,26.066 M75.67,16.187 C75.617,7.243 59.782,0 40.254,0 C20.726,0 4.891,7.243 4.838,16.187 C1.753,18.483 0,21.112 0,23.907 C0,27.21 2.453,30.28 6.654,32.844 C7.331,36.459 8.314,40.478 9.55,44.936 C14.497,62.775 32.825,62.489 40.375,62.529 C47.924,62.489 66.253,62.775 71.2,44.936 C72.456,40.406 73.449,36.332 74.127,32.672 C78.159,30.143 80.508,27.137 80.508,23.907 C80.508,21.112 78.755,18.483 75.67,16.187" id="Shape"></path>
                </g>
                <g id="Light-S" transform="translate(622.272000, 9.254000)">
                    <path d="M9.955,14.58 C9.955,8.519 23.166,3.606 39.464,3.606 C55.762,3.606 68.973,8.519 68.973,14.58 C68.973,20.641 55.762,25.555 39.464,25.555 C23.166,25.555 9.955,20.641 9.955,14.58 Z M39.464,0 C20.318,0 4.794,7.101 4.743,15.869 C1.718,18.12 0,20.698 0,23.439 C0,26.676 2.404,29.687 6.523,32.2 C7.187,35.744 8.15,39.684 9.362,44.055 C14.212,61.545 32.181,61.264 39.582,61.303 C46.984,61.264 64.953,61.545 69.803,44.055 C71.034,39.614 72.008,35.62 72.672,32.031 C76.626,29.552 78.928,26.605 78.928,23.439 C78.928,20.698 77.21,18.12 74.185,15.869 C74.134,7.101 58.609,0 39.464,0 Z" id="Shape"></path>
                </g>
                <g id="Thin-S" transform="translate(326.336000, 9.594700)">
                    <path d="M38.691,25.054 C22.713,25.054 9.76,20.237 9.76,14.295 C9.76,8.352 22.713,3.535 38.691,3.535 C54.669,3.535 67.622,8.352 67.622,14.295 C67.622,20.237 54.669,25.054 38.691,25.054 M72.732,15.558 C72.681,6.962 57.461,0 38.691,0 C19.921,0 4.701,6.962 4.65,15.558 C1.685,17.765 0,20.293 0,22.979 C0,26.153 2.358,29.105 6.396,31.568 C7.047,35.043 7.991,38.906 9.179,43.191 C13.934,60.338 31.551,60.063 38.807,60.101 C46.063,60.063 63.68,60.338 68.435,43.191 C69.642,38.838 70.597,34.921 71.248,31.403 C75.124,28.973 77.381,26.083 77.381,22.979 C77.381,20.293 75.697,17.765 72.732,15.558" id="Shape"></path>
                </g>
                <g id="Ultralight-S" transform="translate(30.383600, 8.695700)">
                    <path d="M37.932,24.563 C22.267,24.563 9.569,19.84 9.569,14.015 C9.569,8.189 22.267,3.466 37.932,3.466 C53.597,3.466 66.295,8.189 66.295,14.015 C66.295,19.84 53.597,24.563 37.932,24.563 M71.305,15.253 C71.255,6.825 56.334,0 37.932,0 C19.53,0 4.609,6.826 4.559,15.253 C1.652,17.417 0,19.895 0,22.529 C0,25.641 2.311,28.534 6.27,30.95 C6.908,34.356 7.834,38.143 8.999,42.345 C13.66,59.155 30.932,58.886 38.046,58.923 C45.16,58.886 62.431,59.155 67.093,42.345 C68.276,38.076 69.212,34.237 69.851,30.788 C73.651,28.405 75.864,25.572 75.864,22.529 C75.864,19.895 74.212,17.417 71.305,15.253" id="Shape"></path>
                </g>
            </g>
        </g>
    </g>
</svg>